<svg xmlns="http://www.w3.org/2000/svg" width="696.057" height="138.94" viewBox="0 0 696.057 138.94">
  <g id="Group_216" data-name="Group 216" transform="translate(-1590.823 -175.935)">
    <g id="Group_203" data-name="Group 203" transform="translate(-9.261)">
      <path id="Path_3239" data-name="Path 3239" d="M1679.083,285.685h11.7a9.952,9.952,0,0,1,5.24,1.111,5.443,5.443,0,0,1,2.369,3.165,20.019,20.019,0,0,1,.608,5.49,20.626,20.626,0,0,1-.566,5.324,5.643,5.643,0,0,1-2.37,3.271,9.546,9.546,0,0,1-5.323,1.216h-5.157v9.264h-6.5Zm9.432,14.169a7.913,7.913,0,0,0,2.641-.314,1.708,1.708,0,0,0,1.048-1.174,17,17,0,0,0,0-5.827,1.649,1.649,0,0,0-1.048-1.153,8.4,8.4,0,0,0-2.641-.293h-2.935v8.761Z" transform="translate(0 0.015)" fill="#4a4b69"/>
      <path id="Path_3240" data-name="Path 3240" d="M1704.458,313.6a5.756,5.756,0,0,1-2.81-4.108,77.847,77.847,0,0,1,0-18.739,5.761,5.761,0,0,1,2.81-4.108q2.242-1.278,7.482-1.278,5.283,0,7.524,1.278a5.682,5.682,0,0,1,2.788,4.087,81.023,81.023,0,0,1,0,18.781,5.68,5.68,0,0,1-2.788,4.087q-2.243,1.278-7.524,1.278Q1706.7,314.875,1704.458,313.6Zm10.522-4.59a2.811,2.811,0,0,0,.984-2.18q.209-1.72.21-6.707t-.21-6.708a2.813,2.813,0,0,0-.984-2.18,10.25,10.25,0,0,0-6.079,0,2.806,2.806,0,0,0-.984,2.18q-.211,1.72-.211,6.708t.211,6.707a2.8,2.8,0,0,0,.984,2.18,10.25,10.25,0,0,0,6.079,0Z" transform="translate(1.056 0)" fill="#4a4b69"/>
      <path id="Path_3241" data-name="Path 3241" d="M1740.285,314.526l-3.355-10.1h-4.192v10.1h-6.5V285.685h11.863a10.715,10.715,0,0,1,5.366,1.069,5.215,5.215,0,0,1,2.409,3.038,18.293,18.293,0,0,1,.609,5.24,17.757,17.757,0,0,1-.671,5.219,5.07,5.07,0,0,1-2.725,3.165l4.024,11.11Zm-1.656-15.762a1.632,1.632,0,0,0,1.027-1.069,9.5,9.5,0,0,0,.251-2.62,10.606,10.606,0,0,0-.23-2.663,1.519,1.519,0,0,0-1.006-1.048,8.854,8.854,0,0,0-2.62-.271h-3.313v7.965h3.271A8.191,8.191,0,0,0,1738.629,298.764Z" transform="translate(2.263 0.015)" fill="#4a4b69"/>
      <path id="Path_3242" data-name="Path 3242" d="M1758.642,314.526V285.685H1776v5.408h-10.857v6.162h9.307v5.408h-9.307v6.455H1776v5.409Z" transform="translate(3.818 0.015)" fill="#4a4b69"/>
      <path id="Path_3243" data-name="Path 3243" d="M1779.274,314.164v-5.115q5.2.42,7.378.42a16.52,16.52,0,0,0,2.683-.168,2.556,2.556,0,0,0,1.384-.587,1.748,1.748,0,0,0,.482-.922,8.7,8.7,0,0,0,.1-1.551,7.578,7.578,0,0,0-.168-1.908,1.265,1.265,0,0,0-.693-.816,7.22,7.22,0,0,0-1.78-.461l-4.653-.672q-3.186-.459-4.318-2.472a11.986,11.986,0,0,1-1.132-5.785,10.507,10.507,0,0,1,1.216-5.575,5.784,5.784,0,0,1,3.312-2.558,18.891,18.891,0,0,1,5.324-.628,41.59,41.59,0,0,1,8.174.838v5.029a56.055,56.055,0,0,0-6.708-.461q-3.1,0-3.981.587a1.265,1.265,0,0,0-.629.819,7.523,7.523,0,0,0-.126,1.614,8.027,8.027,0,0,0,.126,1.718,1.085,1.085,0,0,0,.566.735,5.349,5.349,0,0,0,1.53.4l4.988.713a8.753,8.753,0,0,1,2.788.837,4.406,4.406,0,0,1,1.824,2.012,12.61,12.61,0,0,1,.88,5.282,12.913,12.913,0,0,1-1.132,6.079,5.377,5.377,0,0,1-3.082,2.683,16.981,16.981,0,0,1-5.092.628A53.638,53.638,0,0,1,1779.274,314.164Z" transform="translate(4.774 0)" fill="#4a4b69"/>
      <path id="Path_3244" data-name="Path 3244" d="M1805.832,314.526V291.3h-6.792v-5.616H1819.2V291.3h-6.832v23.225Z" transform="translate(5.757 0.015)" fill="#4a4b69"/>
      <path id="Path_3245" data-name="Path 3245" d="M1835.461,314.526l-1.468-5.785h-8.51l-1.382,5.785h-6.539l7.713-28.841h9.138l7.671,28.841Zm-5.618-22.972h-.251l-2.809,11.82h5.911Z" transform="translate(6.646 0.015)" fill="#4a4b69"/>
      <path id="Path_3246" data-name="Path 3246" d="M1843.88,285.685h9.056q5.447,0,7.775,1.258a5.6,5.6,0,0,1,2.893,4.024,74.068,74.068,0,0,1,0,18.277,5.6,5.6,0,0,1-2.893,4.023q-2.327,1.259-7.775,1.259h-9.056Zm8.887,23.432a9.408,9.408,0,0,0,3.479-.418q.88-.42,1.111-2.075a58.132,58.132,0,0,0,.23-6.519,53.386,53.386,0,0,0-.251-6.519,2.546,2.546,0,0,0-1.111-2.075,9.243,9.243,0,0,0-3.458-.419h-2.389v18.024Z" transform="translate(7.909 0.015)" fill="#4a4b69"/>
      <path id="Path_3247" data-name="Path 3247" d="M1870.414,313.6a5.752,5.752,0,0,1-2.809-4.108,77.847,77.847,0,0,1,0-18.739,5.757,5.757,0,0,1,2.809-4.108q2.243-1.278,7.483-1.278,5.282,0,7.524,1.278a5.688,5.688,0,0,1,2.788,4.087,81.167,81.167,0,0,1,0,18.781,5.685,5.685,0,0,1-2.788,4.087q-2.243,1.278-7.524,1.278Q1872.656,314.875,1870.414,313.6Zm10.522-4.59a2.811,2.811,0,0,0,.985-2.18q.209-1.72.209-6.707t-.209-6.708a2.813,2.813,0,0,0-.985-2.18,10.247,10.247,0,0,0-6.078,0,2.806,2.806,0,0,0-.985,2.18q-.211,1.72-.21,6.708t.21,6.707a2.8,2.8,0,0,0,.985,2.18,10.247,10.247,0,0,0,6.078,0Z" transform="translate(9.021 0)" fill="#4a4b69"/>
      <path id="Path_3248" data-name="Path 3248" d="M1906.7,314.526v-9.935l-8.3-18.906h6.708l4.82,12.282h.336l4.694-12.282h6.54l-8.257,18.906v9.935Z" transform="translate(10.526 0.015)" fill="#4a4b69"/>
      <path id="Path_3249" data-name="Path 3249" d="M1953.376,314.526V294.572h-.292l-5.24,19.954h-5.115l-5.2-19.954h-.292v19.954h-6.12V285.685h9.348l4.821,18.487h.294l4.821-18.487h9.263v28.841Z" transform="translate(12.096 0.015)" fill="#4a4b69"/>
      <path id="Path_3250" data-name="Path 3250" d="M1983.489,285.685v15.93A42.353,42.353,0,0,1,1982.9,310a5.329,5.329,0,0,1-2.683,3.731q-2.1,1.132-6.875,1.131t-6.875-1.131a5.4,5.4,0,0,1-2.7-3.752,40.872,40.872,0,0,1-.608-8.363v-15.93h6.539v17.647a31.3,31.3,0,0,0,.19,4.234,1.963,1.963,0,0,0,.9,1.551,5.991,5.991,0,0,0,2.557.378,5.843,5.843,0,0,0,2.536-.378,1.969,1.969,0,0,0,.88-1.53,31.288,31.288,0,0,0,.189-4.255V285.685Z" transform="translate(13.634 0.015)" fill="#4a4b69"/>
      <path id="Path_3251" data-name="Path 3251" d="M2002.32,314.526l-8.468-16.475h-.209v16.475H1987.4V285.685h6.581l7.923,15.133h.209V285.685h6.246v28.841Z" transform="translate(14.797 0.015)" fill="#4a4b69"/>
      <path id="Path_3252" data-name="Path 3252" d="M2012.4,314.526V285.685h6.541v28.841Z" transform="translate(15.997 0.015)" fill="#4a4b69"/>
      <path id="Path_3253" data-name="Path 3253" d="M2037.082,314.667a29.592,29.592,0,0,1-3.4.208q-4.736,0-6.98-1.319a6.537,6.537,0,0,1-2.976-4.339,41.587,41.587,0,0,1-.733-9.1,40.266,40.266,0,0,1,.754-9.034,6.7,6.7,0,0,1,3-4.381q2.243-1.341,6.938-1.341a28.492,28.492,0,0,1,3.375.209,18.117,18.117,0,0,1,2.872.545v5.031q-3.562-.377-4.737-.378a9.316,9.316,0,0,0-3.919.566,2.957,2.957,0,0,0-1.361,2.307,71.379,71.379,0,0,0,0,12.953,2.957,2.957,0,0,0,1.361,2.306,9.3,9.3,0,0,0,3.919.566,31.536,31.536,0,0,0,4.863-.378v5.073A24.412,24.412,0,0,1,2037.082,314.667Z" transform="translate(16.505 0)" fill="#4a4b69"/>
      <path id="Path_3254" data-name="Path 3254" d="M2043.235,314.526V285.685h6.541v28.841Z" transform="translate(17.477 0.015)" fill="#4a4b69"/>
      <path id="Path_3255" data-name="Path 3255" d="M2054.516,285.685h11.7a9.952,9.952,0,0,1,5.24,1.111,5.444,5.444,0,0,1,2.369,3.165,20.056,20.056,0,0,1,.607,5.49,20.593,20.593,0,0,1-.566,5.324,5.644,5.644,0,0,1-2.368,3.271,9.551,9.551,0,0,1-5.324,1.216h-5.156v9.264h-6.5Zm9.432,14.169a7.908,7.908,0,0,0,2.64-.314,1.706,1.706,0,0,0,1.048-1.174,17,17,0,0,0,0-5.827,1.648,1.648,0,0,0-1.048-1.153,8.4,8.4,0,0,0-2.64-.293h-2.935v8.761Z" transform="translate(18.018 0.015)" fill="#4a4b69"/>
      <path id="Path_3256" data-name="Path 3256" d="M2077.154,314.526V285.685h6.541v28.841Z" transform="translate(19.105 0.015)" fill="#4a4b69"/>
      <path id="Path_3257" data-name="Path 3257" d="M2091.129,313.6a5.754,5.754,0,0,1-2.809-4.108,77.813,77.813,0,0,1,0-18.739,5.759,5.759,0,0,1,2.809-4.108q2.241-1.278,7.483-1.278,5.282,0,7.524,1.278a5.686,5.686,0,0,1,2.788,4.087,81.185,81.185,0,0,1,0,18.781,5.684,5.684,0,0,1-2.788,4.087q-2.243,1.278-7.524,1.278Q2093.371,314.875,2091.129,313.6Zm10.522-4.59a2.81,2.81,0,0,0,.985-2.18q.209-1.72.21-6.707t-.21-6.708a2.812,2.812,0,0,0-.985-2.18,10.246,10.246,0,0,0-6.078,0,2.808,2.808,0,0,0-.985,2.18q-.209,1.72-.21,6.708t.21,6.707a2.806,2.806,0,0,0,.985,2.18,10.246,10.246,0,0,0,6.078,0Z" transform="translate(19.614 0)" fill="#4a4b69"/>
    </g>
    <g id="Group_214" data-name="Group 214">
      <g id="Group_213" data-name="Group 213">
        <g id="Group_212" data-name="Group 212">
          <g id="Group_204" data-name="Group 204">
            <path id="Path_3258" data-name="Path 3258" d="M1641.963,252.529c-6.085,6.008-13.479,8.4-21.642,8.4-21.18,0-29.421-13.324-29.5-27.958-.077-13.862,9.242-28.572,29.5-28.572a28.879,28.879,0,0,1,20.871,8.625l-9.4,9.242a15.868,15.868,0,0,0-11.476-4.7c-10.4,0-14.48,8.472-14.4,15.48s3.775,14.942,14.4,14.942a18.643,18.643,0,0,0,12.707-5.468Z" fill="#4a4b69"/>
            <path id="Path_3259" data-name="Path 3259" d="M1673.6,260.847c-17.636,0-29.959-10.244-29.959-28.266,0-17.713,12.323-28.264,29.959-28.264,17.714,0,29.96,10.32,29.96,28.264C1703.564,250.6,1691.318,260.847,1673.6,260.847Zm0-43.515c-8.7,0-14.71,6.315-14.71,15.249,0,9.012,6.085,15.25,14.71,15.25,8.935,0,14.711-6.315,14.711-15.25C1688.315,223.339,1682.539,217.332,1673.6,217.332Z" fill="#4a4b69"/>
            <path id="Path_3260" data-name="Path 3260" d="M1761.39,259.538H1744.6l-12.554-17.483h-5.315v17.483h-15.249V205.625h26.34c13.787,0,20.948,8.858,20.948,18.562,0,6.623-2.311,12.246-11.4,16.25l14.017,18.177Zm-34.658-41.744v12.939h11.245c4.005,0,5.776-3,5.776-6.238,0-3.39-1.925-6.7-5.93-6.7Z" fill="#4a4b69"/>
            <path id="Path_3261" data-name="Path 3261" d="M1794.727,260.847c-17.637,0-29.959-10.244-29.959-28.266,0-17.713,12.322-28.264,29.959-28.264,17.714,0,29.96,10.32,29.96,28.264C1824.687,250.6,1812.441,260.847,1794.727,260.847Zm0-43.515c-8.7,0-14.71,6.315-14.71,15.249,0,9.012,6.085,15.25,14.71,15.25,8.935,0,14.71-6.315,14.71-15.25C1809.437,223.339,1803.662,217.332,1794.727,217.332Z" fill="#4a4b69"/>
            <path id="Path_3262" data-name="Path 3262" d="M1868.342,235.123c-.385-6.47-.385-8.934-.462-11.013V205.625h15.326v53.913h-12.94L1847.778,230.5l.231,11.784v17.252h-15.4V205.625h12.939Z" fill="#4a4b69"/>
            <path id="Path_3263" data-name="Path 3263" d="M1931.328,250.68h-24.106l-3.543,8.858h-16.173l24.182-53.913h15.4l24.106,53.913h-16.327Zm-12.015-29.959-6.931,17.174h13.786Z" fill="#4a4b69"/>
            <path id="Path_3264" data-name="Path 3264" d="M1982.071,259.768h-14.864L1944.8,205.625h16.866l6.161,16.174,6.778,19.948,6.854-19.948,6.162-16.174h16.867Z" fill="#4a4b69"/>
            <path id="Path_3265" data-name="Path 3265" d="M2008.936,259.538V205.625h15.172v53.913Z" fill="#4a4b69"/>
            <path id="Path_3266" data-name="Path 3266" d="M2084.946,259.538h-16.789L2055.6,242.055h-5.315v17.483h-15.249V205.625h26.34c13.786,0,20.948,8.858,20.948,18.562,0,6.623-2.311,12.246-11.4,16.25l14.017,18.177Zm-34.658-41.744v12.939h11.245c4.005,0,5.776-3,5.776-6.238,0-3.39-1.925-6.7-5.93-6.7Z" fill="#4a4b69"/>
            <path id="Path_3267" data-name="Path 3267" d="M2141.851,205.7v30.114c.077,15.943-9.627,24.876-25.417,24.876s-25.415-8.548-25.415-25.03V205.7h15.172v29.96c0,8.472,4.083,12.015,10.243,12.015s10.243-3.7,10.243-11.861V205.7Z" fill="#4a4b69"/>
            <path id="Path_3268" data-name="Path 3268" d="M2185.2,220.567c-3.7-2.773-7.933-3.7-12.63-3.7-3.7,0-7.317,1.155-7.317,4.005,0,3.7,3.619,4.236,8.933,4.775,10.706,1.156,21.873,5.468,21.873,17.867,0,12.246-11.553,17.484-23.645,17.561-9.7.077-16.634-1.617-24.105-9.473l8.394-9.627a21.63,21.63,0,0,0,15.79,6.084c5.006,0,8.471-1.771,8.471-4.776,0-2.695-3.08-4.389-9.011-4.929-11.783-1.077-21.951-4.081-21.951-17.482,0-11.4,11.169-16.327,22.568-16.327,8.086,0,14.4,1.847,20.178,6.391Z" fill="#4a4b69"/>
          </g>
          <g id="Group_211" data-name="Group 211">
            <g id="Group_207" data-name="Group 207">
              <g id="Group_206" data-name="Group 206">
                <path id="Path_3269" data-name="Path 3269" d="M2273.515,218.153h4.1a4.967,4.967,0,1,0,0-4.967h-4.1a26.337,26.337,0,0,0-2.289-8.552l3.549-2.049a4.968,4.968,0,1,0-2.483-4.3l-3.554,2.052a26.624,26.624,0,0,0-6.259-6.259l2.052-3.553a4.967,4.967,0,1,0-4.3-2.484l-2.05,3.55a26.3,26.3,0,0,0-8.552-2.29v-4.1a4.966,4.966,0,1,0-4.967,0v4.1a26.3,26.3,0,0,0-8.551,2.29l-2.05-3.55a4.967,4.967,0,1,0-4.3,2.484l2.051,3.553a26.615,26.615,0,0,0-6.258,6.259L2222,198.283a4.967,4.967,0,1,0-2.484,4.3l3.55,2.049a26.312,26.312,0,0,0-2.289,8.552h-4.1a4.967,4.967,0,1,0,0,4.967h4.1a26.312,26.312,0,0,0,2.289,8.552l-3.55,2.049a4.967,4.967,0,1,0,2.484,4.3l3.553-2.052a26.638,26.638,0,0,0,6.259,6.259l-2.051,3.553a4.967,4.967,0,1,0,4.3,2.484l2.05-3.55a26.3,26.3,0,0,0,8.551,2.29v4.1a4.968,4.968,0,1,0,4.967,0v-4.1a26.3,26.3,0,0,0,8.552-2.29l2.05,3.55a4.966,4.966,0,1,0,4.3-2.484l-2.052-3.553a26.606,26.606,0,0,0,6.259-6.259l3.554,2.052a4.966,4.966,0,1,0,2.483-4.3l-3.549-2.049A26.337,26.337,0,0,0,2273.515,218.153Z" fill="#6cd04d"/>
                <g id="Group_205" data-name="Group 205">
                  <circle id="Ellipse_111" data-name="Ellipse 111" cx="6.622" cy="6.622" r="6.622" transform="translate(2233.9 195.802)" fill="#fff"/>
                  <circle id="Ellipse_112" data-name="Ellipse 112" cx="3.311" cy="3.311" r="3.311" transform="translate(2227.277 209.047)" fill="#fff"/>
                </g>
              </g>
            </g>
            <g id="Group_210" data-name="Group 210">
              <g id="Group_209" data-name="Group 209">
                <path id="Path_3270" data-name="Path 3270" d="M2211.126,268.176h2.343a2.838,2.838,0,1,0,0-2.838h-2.343a15.041,15.041,0,0,0-1.308-4.887l2.028-1.171a2.838,2.838,0,1,0-1.419-2.458l-2.031,1.173a15.219,15.219,0,0,0-3.576-3.577l1.172-2.031a2.838,2.838,0,1,0-2.458-1.419L2202.363,253a15.034,15.034,0,0,0-4.887-1.309v-2.343a2.838,2.838,0,1,0-2.838,0v2.343a15.041,15.041,0,0,0-4.887,1.309l-1.171-2.029a2.839,2.839,0,1,0-2.458,1.419l1.173,2.031a15.223,15.223,0,0,0-3.577,3.577l-2.031-1.173a2.838,2.838,0,1,0-1.419,2.458l2.029,1.171a15.036,15.036,0,0,0-1.309,4.887h-2.343a2.838,2.838,0,1,0,0,2.838h2.343a15.029,15.029,0,0,0,1.309,4.887l-2.029,1.171a2.839,2.839,0,1,0,1.419,2.458l2.031-1.172a15.219,15.219,0,0,0,3.577,3.576l-1.173,2.031a2.838,2.838,0,1,0,2.458,1.419l1.171-2.028a15.039,15.039,0,0,0,4.887,1.308v2.343a2.838,2.838,0,1,0,2.838,0v-2.343a15.032,15.032,0,0,0,4.887-1.308l1.171,2.028a2.839,2.839,0,1,0,2.458-1.419l-1.172-2.031a15.215,15.215,0,0,0,3.576-3.576l2.031,1.172a2.838,2.838,0,1,0,1.419-2.458l-2.028-1.171A15.034,15.034,0,0,0,2211.126,268.176Z" fill="#6cd04d"/>
                <g id="Group_208" data-name="Group 208">
                  <circle id="Ellipse_113" data-name="Ellipse 113" cx="3.784" cy="3.784" r="3.784" transform="translate(2188.489 255.404)" fill="#fff"/>
                  <circle id="Ellipse_114" data-name="Ellipse 114" cx="1.892" cy="1.892" r="1.892" transform="translate(2184.704 262.973)" fill="#fff"/>
                </g>
              </g>
            </g>
          </g>
        </g>
      </g>
    </g>
  </g>
</svg>
