<svg xmlns="http://www.w3.org/2000/svg" width="790" height="252.461" viewBox="0 0 790 252.461">
  <g id="header" transform="translate(-253.409 -258.459)">
    <g id="Group_226" data-name="Group 226" transform="translate(427.352 395.66)">
      <path id="Path_3271" data-name="Path 3271" d="M564.564,504.479h11.491a9.771,9.771,0,0,1,5.149,1.091,5.345,5.345,0,0,1,2.327,3.109,19.679,19.679,0,0,1,.6,5.4,20.216,20.216,0,0,1-.556,5.23,5.541,5.541,0,0,1-2.327,3.213,9.388,9.388,0,0,1-5.23,1.194h-5.066v9.1h-6.384Zm9.266,13.92a7.754,7.754,0,0,0,2.6-.309,1.675,1.675,0,0,0,1.029-1.153,16.669,16.669,0,0,0,0-5.725,1.617,1.617,0,0,0-1.029-1.133,8.3,8.3,0,0,0-2.6-.288h-2.882V518.4Z" transform="translate(-564.564 -504.149)" fill="#4a4b69"/>
      <path id="Path_3272" data-name="Path 3272" d="M608.4,531.627a5.651,5.651,0,0,1-2.759-4.036,76.436,76.436,0,0,1,0-18.41,5.652,5.652,0,0,1,2.759-4.036q2.2-1.257,7.352-1.257,5.19,0,7.393,1.257a5.583,5.583,0,0,1,2.738,4.015,79.643,79.643,0,0,1,0,18.451,5.578,5.578,0,0,1-2.738,4.015q-2.2,1.258-7.393,1.257Q610.6,532.883,608.4,531.627Zm10.337-4.509a2.759,2.759,0,0,0,.968-2.142q.206-1.688.206-6.59T619.7,511.8a2.762,2.762,0,0,0-.968-2.142,10.072,10.072,0,0,0-5.972,0,2.757,2.757,0,0,0-.968,2.142q-.207,1.69-.206,6.589t.206,6.59a2.753,2.753,0,0,0,.968,2.142,10.059,10.059,0,0,0,5.972,0Z" transform="translate(-582.432 -503.889)" fill="#4a4b69"/>
      <path id="Path_3273" data-name="Path 3273" d="M665.221,532.814l-3.294-9.925h-4.118v9.925h-6.383V504.479H663.08a10.53,10.53,0,0,1,5.271,1.05,5.128,5.128,0,0,1,2.369,2.986,18,18,0,0,1,.6,5.149,17.434,17.434,0,0,1-.66,5.127,4.979,4.979,0,0,1-2.677,3.11l3.954,10.913Zm-1.626-15.485a1.6,1.6,0,0,0,1.009-1.05,9.339,9.339,0,0,0,.247-2.574,10.368,10.368,0,0,0-.227-2.615,1.488,1.488,0,0,0-.988-1.03,8.622,8.622,0,0,0-2.574-.268h-3.254v7.825h3.212A8.057,8.057,0,0,0,663.595,517.328Z" transform="translate(-602.868 -504.149)" fill="#4a4b69"/>
      <path id="Path_3274" data-name="Path 3274" d="M711.1,532.814V504.479h17.051v5.312H717.482v6.054h9.143v5.314h-9.143V527.5h10.667v5.312Z" transform="translate(-629.182 -504.149)" fill="#4a4b69"/>
      <path id="Path_3275" data-name="Path 3275" d="M748.487,532.183v-5.024q5.106.412,7.248.412a16.235,16.235,0,0,0,2.636-.166,2.5,2.5,0,0,0,1.359-.576,1.706,1.706,0,0,0,.474-.906,8.616,8.616,0,0,0,.1-1.524,7.412,7.412,0,0,0-.165-1.875,1.243,1.243,0,0,0-.679-.8,7.155,7.155,0,0,0-1.75-.453l-4.572-.659q-3.129-.452-4.241-2.43a11.772,11.772,0,0,1-1.112-5.684,10.33,10.33,0,0,1,1.194-5.478,5.682,5.682,0,0,1,3.253-2.513,18.572,18.572,0,0,1,5.23-.617,40.933,40.933,0,0,1,8.032.823v4.942a55.143,55.143,0,0,0-6.59-.453q-3.048,0-3.913.577a1.239,1.239,0,0,0-.617.8,7.345,7.345,0,0,0-.124,1.587,7.833,7.833,0,0,0,.124,1.688,1.064,1.064,0,0,0,.555.721,5.268,5.268,0,0,0,1.5.391l4.9.7a8.6,8.6,0,0,1,2.739.823,4.323,4.323,0,0,1,1.792,1.977,12.4,12.4,0,0,1,.865,5.189,12.684,12.684,0,0,1-1.112,5.972,5.282,5.282,0,0,1-3.027,2.636,16.7,16.7,0,0,1-5,.617A52.659,52.659,0,0,1,748.487,532.183Z" transform="translate(-645.361 -503.889)" fill="#4a4b69"/>
      <path id="Path_3276" data-name="Path 3276" d="M792.177,532.814V510h-6.672v-5.519h19.81V510H798.6v22.816Z" transform="translate(-661.994 -504.149)" fill="#4a4b69"/>
      <path id="Path_3277" data-name="Path 3277" d="M837.2,532.814l-1.441-5.683H827.4l-1.359,5.683h-6.424l7.578-28.335h8.979l7.537,28.335Zm-5.519-22.569h-.246l-2.759,11.615h5.807Z" transform="translate(-677.037 -504.149)" fill="#4a4b69"/>
      <path id="Path_3278" data-name="Path 3278" d="M868.094,504.479h8.9q5.353,0,7.64,1.235a5.5,5.5,0,0,1,2.842,3.953,72.744,72.744,0,0,1,0,17.957,5.5,5.5,0,0,1-2.842,3.953q-2.286,1.236-7.64,1.235h-8.9Zm8.731,23.022a9.246,9.246,0,0,0,3.418-.412q.865-.412,1.092-2.039a57.353,57.353,0,0,0,.226-6.4,52.553,52.553,0,0,0-.247-6.4,2.506,2.506,0,0,0-1.091-2.039,9.081,9.081,0,0,0-3.4-.412h-2.348V527.5Z" transform="translate(-698.414 -504.149)" fill="#4a4b69"/>
      <path id="Path_3279" data-name="Path 3279" d="M914.067,531.627a5.651,5.651,0,0,1-2.759-4.036,76.436,76.436,0,0,1,0-18.41,5.652,5.652,0,0,1,2.759-4.036q2.2-1.257,7.351-1.257,5.19,0,7.393,1.257a5.583,5.583,0,0,1,2.738,4.015,79.661,79.661,0,0,1,0,18.451,5.579,5.579,0,0,1-2.738,4.015q-2.2,1.258-7.393,1.257Q916.269,532.883,914.067,531.627Zm10.338-4.509a2.761,2.761,0,0,0,.968-2.142q.206-1.688.206-6.59t-.206-6.589a2.764,2.764,0,0,0-.968-2.142,10.072,10.072,0,0,0-5.972,0,2.757,2.757,0,0,0-.968,2.142q-.207,1.69-.206,6.589t.206,6.59a2.753,2.753,0,0,0,.968,2.142,10.059,10.059,0,0,0,5.972,0Z" transform="translate(-717.225 -503.889)" fill="#4a4b69"/>
      <path id="Path_3280" data-name="Path 3280" d="M976.665,532.814v-9.76l-8.155-18.575h6.59l4.737,12.067h.33l4.612-12.067H991.2l-8.113,18.575v9.76Z" transform="translate(-742.695 -504.149)" fill="#4a4b69"/>
      <path id="Path_3281" data-name="Path 3281" d="M1050.642,532.814v-19.6h-.288l-5.149,19.6h-5.024l-5.107-19.6h-.288v19.6h-6.013V504.479h9.185l4.737,18.163h.287l4.737-18.163h9.1v28.335Z" transform="translate(-769.269 -504.149)" fill="#4a4b69"/>
      <path id="Path_3282" data-name="Path 3282" d="M1107.76,504.479v15.65a41.639,41.639,0,0,1-.576,8.237,5.234,5.234,0,0,1-2.636,3.665q-2.06,1.113-6.754,1.112t-6.755-1.112a5.3,5.3,0,0,1-2.656-3.686,40.11,40.11,0,0,1-.6-8.216v-15.65h6.425v17.338a30.83,30.83,0,0,0,.186,4.16,1.936,1.936,0,0,0,.885,1.524,5.916,5.916,0,0,0,2.512.371,5.764,5.764,0,0,0,2.492-.371,1.937,1.937,0,0,0,.865-1.5,30.7,30.7,0,0,0,.186-4.181V504.479Z" transform="translate(-795.293 -504.149)" fill="#4a4b69"/>
      <path id="Path_3283" data-name="Path 3283" d="M1147.092,532.814l-8.319-16.186h-.206v16.186h-6.137V504.479h6.467l7.783,14.867h.206V504.479h6.136v28.335Z" transform="translate(-814.98 -504.149)" fill="#4a4b69"/>
      <path id="Path_3284" data-name="Path 3284" d="M1178.476,532.814V504.479h6.425v28.335Z" transform="translate(-835.286 -504.149)" fill="#4a4b69"/>
      <path id="Path_3285" data-name="Path 3285" d="M1211.837,532.678a29.176,29.176,0,0,1-3.336.206q-4.655,0-6.857-1.3a6.421,6.421,0,0,1-2.925-4.263,40.865,40.865,0,0,1-.72-8.938,39.561,39.561,0,0,1,.741-8.874,6.583,6.583,0,0,1,2.945-4.3q2.2-1.316,6.816-1.318a27.887,27.887,0,0,1,3.315.206,17.742,17.742,0,0,1,2.822.536v4.942q-3.5-.37-4.654-.371a9.136,9.136,0,0,0-3.851.556,2.905,2.905,0,0,0-1.338,2.266,70.173,70.173,0,0,0,0,12.726,2.905,2.905,0,0,0,1.338,2.266,9.137,9.137,0,0,0,3.851.556,31.117,31.117,0,0,0,4.777-.371v4.983A23.561,23.561,0,0,1,1211.837,532.678Z" transform="translate(-843.895 -503.889)" fill="#4a4b69"/>
      <path id="Path_3286" data-name="Path 3286" d="M1235.278,532.814V504.479h6.425v28.335Z" transform="translate(-860.334 -504.149)" fill="#4a4b69"/>
      <path id="Path_3287" data-name="Path 3287" d="M1256.052,504.479h11.491a9.769,9.769,0,0,1,5.148,1.091,5.343,5.343,0,0,1,2.327,3.109,19.66,19.66,0,0,1,.6,5.4,20.2,20.2,0,0,1-.556,5.23,5.544,5.544,0,0,1-2.326,3.213,9.39,9.39,0,0,1-5.231,1.194h-5.066v9.1h-6.384Zm9.266,13.92a7.752,7.752,0,0,0,2.595-.309,1.676,1.676,0,0,0,1.029-1.153,16.665,16.665,0,0,0,0-5.725,1.618,1.618,0,0,0-1.029-1.133,8.3,8.3,0,0,0-2.595-.288h-2.883V518.4Z" transform="translate(-869.495 -504.149)" fill="#4a4b69"/>
      <path id="Path_3288" data-name="Path 3288" d="M1297.751,532.814V504.479h6.425v28.335Z" transform="translate(-887.883 -504.149)" fill="#4a4b69"/>
      <path id="Path_3289" data-name="Path 3289" d="M1320.588,531.627a5.651,5.651,0,0,1-2.759-4.036,76.436,76.436,0,0,1,0-18.41,5.652,5.652,0,0,1,2.759-4.036q2.2-1.257,7.352-1.257,5.19,0,7.393,1.257a5.582,5.582,0,0,1,2.739,4.015,79.661,79.661,0,0,1,0,18.451,5.577,5.577,0,0,1-2.739,4.015q-2.2,1.258-7.393,1.257Q1322.79,532.883,1320.588,531.627Zm10.337-4.509a2.76,2.76,0,0,0,.968-2.142q.205-1.688.205-6.59t-.205-6.589a2.763,2.763,0,0,0-.968-2.142,10.07,10.07,0,0,0-5.971,0,2.757,2.757,0,0,0-.968,2.142q-.207,1.69-.206,6.589t.206,6.59a2.753,2.753,0,0,0,.968,2.142,10.057,10.057,0,0,0,5.971,0Z" transform="translate(-896.492 -503.889)" fill="#4a4b69"/>
    </g>
    <g id="Group_247" data-name="Group 247" transform="translate(253.409 287.272)">
      <g id="Group_236" data-name="Group 236">
        <g id="Group_235" data-name="Group 235">
          <g id="Group_227" data-name="Group 227" transform="translate(91.183 28.495)">
            <path id="Path_3290" data-name="Path 3290" d="M1411.636,369.682c6.109-6.032,13.532-8.429,21.728-8.429,21.265,0,29.538,13.377,29.615,28.069.077,13.917-9.279,28.686-29.615,28.686a28.993,28.993,0,0,1-20.954-8.659l9.432-9.279a15.927,15.927,0,0,0,11.521,4.717c10.439,0,14.537-8.5,14.46-15.541s-3.789-15-14.46-15a18.717,18.717,0,0,0-12.758,5.49Z" transform="translate(-855.344 -361.096)" fill="none"/>
            <path id="Path_3291" data-name="Path 3291" d="M1331.082,361.391c17.707,0,30.079,10.285,30.079,28.378,0,17.784-12.372,28.377-30.079,28.377-17.784,0-30.078-10.361-30.078-28.377C1301,371.676,1313.3,361.391,1331.082,361.391Zm0,43.688c8.737,0,14.769-6.34,14.769-15.31,0-9.047-6.109-15.309-14.769-15.309-8.969,0-14.768,6.339-14.768,15.309C1316.314,399.048,1322.113,405.079,1331.082,405.079Z" transform="translate(-806.558 -361.157)" fill="none"/>
            <path id="Path_3292" data-name="Path 3292" d="M1197.153,363.744h16.856l12.6,17.552h5.336V363.744h15.31V417.87h-26.445c-13.841,0-21.031-8.892-21.031-18.635,0-6.649,2.32-12.295,11.443-16.314l-14.072-18.249Zm34.8,41.909v-12.99h-11.289c-4.021,0-5.8,3.015-5.8,6.263,0,3.4,1.932,6.727,5.953,6.727Z" transform="translate(-760.762 -362.195)" fill="none"/>
            <path id="Path_3293" data-name="Path 3293" d="M1113.554,361.391c17.707,0,30.079,10.285,30.079,28.378,0,17.784-12.372,28.377-30.079,28.377-17.784,0-30.078-10.361-30.078-28.377C1083.476,371.676,1095.771,361.391,1113.554,361.391Zm0,43.688c8.737,0,14.769-6.34,14.769-15.31,0-9.047-6.109-15.309-14.769-15.309-8.969,0-14.768,6.339-14.768,15.309C1098.786,399.048,1104.585,405.079,1113.554,405.079Z" transform="translate(-710.633 -361.157)" fill="none"/>
            <path id="Path_3294" data-name="Path 3294" d="M993.3,388.255c.387,6.5.387,8.97.464,11.056V417.87H978.379V363.744H991.37l22.578,29.151-.231-11.831v-17.32h15.464V417.87h-12.99Z" transform="translate(-664.287 -362.195)" fill="none"/>
            <path id="Path_3295" data-name="Path 3295" d="M876.219,372.636h24.2l3.558-8.892h16.237L895.937,417.87H880.471l-24.2-54.126h16.392Zm12.063,30.078,6.958-17.242H881.4Z" transform="translate(-610.44 -362.195)" fill="none"/>
            <path id="Path_3296" data-name="Path 3296" d="M783.075,363.329H798l22.5,54.358H803.566l-6.186-16.238-6.8-20.026-6.88,20.026-6.187,16.238H760.574Z" transform="translate(-568.24 -362.012)" fill="none"/>
            <path id="Path_3297" data-name="Path 3297" d="M740.56,363.744V417.87H725.328V363.744Z" transform="translate(-552.697 -362.195)" fill="none"/>
            <path id="Path_3298" data-name="Path 3298" d="M616.069,363.744h16.856l12.6,17.552h5.336V363.744h15.309V417.87H639.729c-13.841,0-21.031-8.892-21.031-18.635,0-6.649,2.319-12.295,11.443-16.314l-14.072-18.249Zm34.8,41.909v-12.99h-11.29c-4.021,0-5.8,3.015-5.8,6.263,0,3.4,1.933,6.727,5.954,6.727Z" transform="translate(-504.517 -362.195)" fill="none"/>
            <path id="Path_3299" data-name="Path 3299" d="M513.871,416.878V386.645c-.077-16.006,9.665-24.975,25.517-24.975S564.9,370.252,564.9,386.8v30.078H549.672V386.8c0-8.506-4.1-12.063-10.284-12.063S529.1,378.448,529.1,386.645v30.233Z" transform="translate(-459.449 -361.28)" fill="none"/>
            <path id="Path_3300" data-name="Path 3300" d="M427.422,401.647c3.712,2.783,7.965,3.711,12.681,3.711,3.712,0,7.346-1.159,7.346-4.02,0-3.712-3.634-4.253-8.968-4.794-10.749-1.161-21.96-5.49-21.96-17.938,0-12.295,11.6-17.553,23.738-17.63,9.742-.078,16.7,1.624,24.2,9.511l-8.428,9.666a21.714,21.714,0,0,0-15.852-6.108c-5.026,0-8.5,1.778-8.5,4.794,0,2.706,3.092,4.406,9.047,4.948,11.829,1.082,22.037,4.1,22.037,17.552,0,11.443-11.212,16.392-22.657,16.392-8.119,0-14.459-1.855-20.258-6.417Z" transform="translate(-416.52 -360.973)" fill="none"/>
          </g>
          <g id="Group_234" data-name="Group 234">
            <g id="Group_230" data-name="Group 230" transform="translate(0 34.194)">
              <g id="Group_229" data-name="Group 229">
                <path id="Path_3301" data-name="Path 3301" d="M266.827,408.566h-4.117a4.986,4.986,0,1,0,0,4.986h4.117a26.409,26.409,0,0,0,2.3,8.586l-3.564,2.057a4.986,4.986,0,1,0,2.493,4.318l3.568-2.059a26.736,26.736,0,0,0,6.283,6.283l-2.06,3.568a4.986,4.986,0,1,0,4.318,2.493l2.058-3.564a26.419,26.419,0,0,0,8.586,2.3v4.117a4.986,4.986,0,1,0,4.986,0v-4.117a26.419,26.419,0,0,0,8.586-2.3l2.057,3.564a4.987,4.987,0,1,0,4.318-2.493l-2.059-3.568a26.736,26.736,0,0,0,6.283-6.283l3.568,2.059a4.987,4.987,0,1,0,2.493-4.318l-3.564-2.057a26.409,26.409,0,0,0,2.3-8.586h4.117a4.986,4.986,0,1,0,0-4.986h-4.117a26.405,26.405,0,0,0-2.3-8.586l3.564-2.058a4.987,4.987,0,1,0-2.493-4.318l-3.568,2.06a26.735,26.735,0,0,0-6.283-6.283l2.059-3.568a4.987,4.987,0,1,0-4.318-2.494l-2.057,3.564a26.418,26.418,0,0,0-8.586-2.3v-4.117a4.986,4.986,0,1,0-4.986,0v4.117a26.419,26.419,0,0,0-8.586,2.3l-2.057-3.564a4.986,4.986,0,1,0-4.319,2.494l2.06,3.568a26.736,26.736,0,0,0-6.283,6.283l-3.568-2.06a4.987,4.987,0,1,0-2.493,4.318l3.564,2.058A26.405,26.405,0,0,0,266.827,408.566Z" transform="translate(-253.409 -371.167)" fill="none"/>
                <g id="Group_228" data-name="Group 228" transform="translate(39.892 39.892)">
                  <circle id="Ellipse_115" data-name="Ellipse 115" cx="6.649" cy="6.649" r="6.649" transform="translate(0 6.649)" fill="none"/>
                  <circle id="Ellipse_116" data-name="Ellipse 116" cx="3.324" cy="3.324" r="3.324" transform="translate(13.297)" fill="none"/>
                </g>
              </g>
            </g>
            <g id="Group_233" data-name="Group 233" transform="translate(68.387)">
              <g id="Group_232" data-name="Group 232">
                <path id="Path_3302" data-name="Path 3302" d="M383.41,331.371h-2.353a2.85,2.85,0,1,0,0,2.849h2.353a15.1,15.1,0,0,0,1.313,4.907l-2.037,1.176a2.849,2.849,0,1,0,1.425,2.468l2.039-1.177a15.28,15.28,0,0,0,3.591,3.591l-1.177,2.039a2.849,2.849,0,1,0,2.468,1.424l1.176-2.036a15.1,15.1,0,0,0,4.906,1.313v2.353a2.849,2.849,0,1,0,2.85,0v-2.353a15.1,15.1,0,0,0,4.906-1.313l1.176,2.036a2.85,2.85,0,1,0,2.468-1.424l-1.177-2.039a15.279,15.279,0,0,0,3.591-3.591l2.039,1.177a2.849,2.849,0,1,0,1.425-2.468l-2.037-1.176a15.1,15.1,0,0,0,1.313-4.907h2.353a2.849,2.849,0,1,0,0-2.849h-2.353a15.1,15.1,0,0,0-1.313-4.906l2.037-1.176a2.849,2.849,0,1,0-1.425-2.468L410.926,324a15.268,15.268,0,0,0-3.591-3.591l1.177-2.039a2.849,2.849,0,1,0-2.468-1.425l-1.176,2.037a15.112,15.112,0,0,0-4.906-1.314v-2.352a2.849,2.849,0,1,0-2.85,0v2.352a15.112,15.112,0,0,0-4.906,1.314l-1.176-2.037a2.849,2.849,0,1,0-2.468,1.425l1.177,2.039A15.27,15.27,0,0,0,386.15,324l-2.039-1.177a2.849,2.849,0,1,0-1.425,2.468l2.037,1.176A15.094,15.094,0,0,0,383.41,331.371Z" transform="translate(-375.742 -310)" fill="none"/>
                <g id="Group_231" data-name="Group 231" transform="translate(22.796 22.796)">
                  <circle id="Ellipse_117" data-name="Ellipse 117" cx="3.799" cy="3.799" r="3.799" transform="translate(0 3.799)" fill="none"/>
                  <circle id="Ellipse_118" data-name="Ellipse 118" cx="1.9" cy="1.9" r="1.9" transform="translate(7.599)" fill="none"/>
                </g>
              </g>
            </g>
          </g>
        </g>
      </g>
      <g id="Group_246" data-name="Group 246" transform="translate(91.183)">
        <g id="Group_245" data-name="Group 245">
          <g id="Group_237" data-name="Group 237" transform="translate(0 28.494)">
            <path id="Path_3303" data-name="Path 3303" d="M467.863,409.437c-6.109,6.032-13.532,8.429-21.728,8.429-21.265,0-29.538-13.377-29.615-28.069-.077-13.917,9.279-28.686,29.615-28.686a28.992,28.992,0,0,1,20.954,8.659l-9.432,9.279a15.926,15.926,0,0,0-11.521-4.717c-10.439,0-14.537,8.5-14.46,15.541s3.789,15,14.46,15a18.717,18.717,0,0,0,12.758-5.49Z" transform="translate(-416.52 -361.033)" fill="#4a4b69"/>
            <path id="Path_3304" data-name="Path 3304" d="M541.464,417.727c-17.707,0-30.079-10.285-30.079-28.378,0-17.784,12.372-28.377,30.079-28.377,17.784,0,30.078,10.361,30.078,28.377C571.542,407.442,559.247,417.727,541.464,417.727Zm0-43.688c-8.737,0-14.769,6.34-14.769,15.31,0,9.047,6.109,15.309,14.769,15.309,8.97,0,14.768-6.339,14.768-15.309C556.232,380.07,550.433,374.039,541.464,374.039Z" transform="translate(-458.353 -360.972)" fill="#4a4b69"/>
            <path id="Path_3305" data-name="Path 3305" d="M683.322,417.449H666.467l-12.6-17.552h-5.336v17.552h-15.31V363.323h26.445c13.841,0,21.031,8.892,21.031,18.635,0,6.649-2.32,12.295-11.443,16.315l14.072,18.249Zm-34.8-41.909v12.99h11.289c4.021,0,5.8-3.015,5.8-6.263,0-3.4-1.932-6.727-5.953-6.727Z" transform="translate(-512.079 -362.009)" fill="#4a4b69"/>
            <path id="Path_3306" data-name="Path 3306" d="M758.992,417.727c-17.707,0-30.079-10.285-30.079-28.378,0-17.784,12.372-28.377,30.079-28.377,17.784,0,30.078,10.361,30.078,28.377C789.07,407.442,776.775,417.727,758.992,417.727Zm0-43.688c-8.737,0-14.769,6.34-14.769,15.31,0,9.047,6.109,15.309,14.769,15.309,8.97,0,14.768-6.339,14.768-15.309C773.76,380.07,767.961,374.039,758.992,374.039Z" transform="translate(-554.279 -360.972)" fill="#4a4b69"/>
            <path id="Path_3307" data-name="Path 3307" d="M886.624,392.937c-.387-6.5-.387-8.969-.464-11.056V363.323h15.387v54.126H888.556L865.978,388.3l.231,11.831v17.32H850.745V363.323h12.99Z" transform="translate(-608.004 -362.009)" fill="#4a4b69"/>
            <path id="Path_3308" data-name="Path 3308" d="M993.339,408.556h-24.2l-3.558,8.892H949.343l24.278-54.126h15.465l24.2,54.126H996.9Zm-12.063-30.078-6.958,17.243h13.84Z" transform="translate(-651.483 -362.009)" fill="#4a4b69"/>
            <path id="Path_3309" data-name="Path 3309" d="M1089.654,417.681h-14.923l-22.5-54.358h16.933l6.186,16.238,6.8,20.026,6.88-20.026,6.187-16.238h16.934Z" transform="translate(-696.854 -362.009)" fill="#4a4b69"/>
            <path id="Path_3310" data-name="Path 3310" d="M1167.424,417.449V363.323h15.232v54.126Z" transform="translate(-747.652 -362.009)" fill="#4a4b69"/>
            <path id="Path_3311" data-name="Path 3311" d="M1264.407,417.449h-16.856l-12.6-17.552h-5.336v17.552H1214.3V363.323h26.445c13.841,0,21.031,8.892,21.031,18.635,0,6.649-2.319,12.295-11.443,16.315l14.072,18.249Zm-34.8-41.909v12.99h11.29c4.021,0,5.8-3.015,5.8-6.263,0-3.4-1.933-6.727-5.954-6.727Z" transform="translate(-768.324 -362.009)" fill="#4a4b69"/>
            <path id="Path_3312" data-name="Path 3312" d="M1365.872,363.461v30.233c.077,16.006-9.666,24.975-25.517,24.975s-25.516-8.582-25.516-25.13V363.461h15.232v30.078c0,8.506,4.1,12.063,10.284,12.063s10.284-3.711,10.284-11.908V363.461Z" transform="translate(-812.659 -362.07)" fill="#4a4b69"/>
            <path id="Path_3313" data-name="Path 3313" d="M1454.761,377.47c-3.712-2.783-7.965-3.711-12.681-3.711-3.712,0-7.345,1.159-7.345,4.02,0,3.712,3.634,4.253,8.968,4.794,10.749,1.161,21.96,5.49,21.96,17.938,0,12.295-11.6,17.553-23.738,17.63-9.742.078-16.7-1.624-24.2-9.511l8.428-9.665A21.714,21.714,0,0,0,1442,405.073c5.026,0,8.505-1.778,8.505-4.794,0-2.706-3.093-4.406-9.047-4.948-11.829-1.082-22.037-4.1-22.037-17.552,0-11.443,11.212-16.392,22.656-16.392,8.119,0,14.459,1.855,20.259,6.417Z" transform="translate(-858.029 -361.155)" fill="#4a4b69"/>
          </g>
          <g id="Group_244" data-name="Group 244" transform="translate(584.839)">
            <g id="Group_240" data-name="Group 240" transform="translate(34.194)">
              <g id="Group_239" data-name="Group 239">
                <path id="Path_3314" data-name="Path 3314" d="M1590.236,352.386h4.117a4.986,4.986,0,1,0,0-4.986h-4.117a26.41,26.41,0,0,0-2.3-8.586l3.564-2.057a4.986,4.986,0,1,0-2.493-4.318l-3.568,2.059a26.735,26.735,0,0,0-6.283-6.283l2.06-3.568a4.986,4.986,0,1,0-4.318-2.493l-2.058,3.564a26.417,26.417,0,0,0-8.586-2.3V319.3a4.987,4.987,0,1,0-4.986,0v4.117a26.419,26.419,0,0,0-8.586,2.3l-2.057-3.564a4.987,4.987,0,1,0-4.319,2.493l2.06,3.568a26.735,26.735,0,0,0-6.283,6.283l-3.568-2.059a4.987,4.987,0,1,0-2.493,4.318l3.564,2.057a26.41,26.41,0,0,0-2.3,8.586h-4.117a4.986,4.986,0,1,0,0,4.986h4.117a26.406,26.406,0,0,0,2.3,8.586l-3.564,2.058a4.986,4.986,0,1,0,2.493,4.318l3.568-2.06a26.734,26.734,0,0,0,6.283,6.283l-2.06,3.568a4.987,4.987,0,1,0,4.319,2.494l2.057-3.564a26.42,26.42,0,0,0,8.586,2.3v4.117a4.986,4.986,0,1,0,4.986,0v-4.117a26.418,26.418,0,0,0,8.586-2.3l2.057,3.564a4.986,4.986,0,1,0,4.319-2.494l-2.06-3.568a26.734,26.734,0,0,0,6.283-6.283l3.568,2.06a4.987,4.987,0,1,0,2.493-4.318l-3.564-2.058A26.4,26.4,0,0,0,1590.236,352.386Z" transform="translate(-1523.869 -310)" fill="#6cd04d"/>
                <g id="Group_238" data-name="Group 238" transform="translate(19.946 19.946)">
                  <circle id="Ellipse_119" data-name="Ellipse 119" cx="6.649" cy="6.649" r="6.649" transform="translate(6.649)" fill="#fff"/>
                  <circle id="Ellipse_120" data-name="Ellipse 120" cx="3.324" cy="3.324" r="3.324" transform="translate(0 13.297)" fill="#fff"/>
                </g>
              </g>
            </g>
            <g id="Group_243" data-name="Group 243" transform="translate(0 68.387)">
              <g id="Group_242" data-name="Group 242">
                <path id="Path_3315" data-name="Path 3315" d="M1500.626,456.554h2.353a2.85,2.85,0,1,0,0-2.849h-2.353a15.1,15.1,0,0,0-1.313-4.906l2.036-1.176a2.849,2.849,0,1,0-1.425-2.467l-2.039,1.177a15.278,15.278,0,0,0-3.591-3.591l1.177-2.039a2.849,2.849,0,1,0-2.468-1.424l-1.176,2.036a15.1,15.1,0,0,0-4.906-1.313v-2.353a2.849,2.849,0,1,0-2.85,0V440a15.1,15.1,0,0,0-4.906,1.313l-1.176-2.036a2.85,2.85,0,1,0-2.468,1.424l1.177,2.039a15.279,15.279,0,0,0-3.591,3.591l-2.039-1.177a2.85,2.85,0,1,0-1.425,2.467l2.036,1.176a15.1,15.1,0,0,0-1.313,4.906h-2.353a2.849,2.849,0,1,0,0,2.849h2.353a15.1,15.1,0,0,0,1.313,4.906l-2.036,1.176a2.849,2.849,0,1,0,1.425,2.468l2.039-1.177a15.267,15.267,0,0,0,3.591,3.591l-1.177,2.039a2.85,2.85,0,1,0,2.468,1.425l1.176-2.036a15.1,15.1,0,0,0,4.906,1.314v2.352a2.849,2.849,0,1,0,2.85,0v-2.352a15.1,15.1,0,0,0,4.906-1.314L1493,470.98a2.85,2.85,0,1,0,2.468-1.425l-1.177-2.039a15.267,15.267,0,0,0,3.591-3.591l2.039,1.177a2.85,2.85,0,1,0,1.425-2.468l-2.036-1.176A15.094,15.094,0,0,0,1500.626,456.554Z" transform="translate(-1462.702 -432.333)" fill="#6cd04d"/>
                <g id="Group_241" data-name="Group 241" transform="translate(11.398 11.398)">
                  <circle id="Ellipse_121" data-name="Ellipse 121" cx="3.799" cy="3.799" r="3.799" transform="translate(3.799)" fill="#fff"/>
                  <circle id="Ellipse_122" data-name="Ellipse 122" cx="1.9" cy="1.9" r="1.9" transform="translate(0 7.599)" fill="#fff"/>
                </g>
              </g>
            </g>
          </g>
        </g>
      </g>
    </g>
    <g id="Group_248" data-name="Group 248" transform="translate(524.315 258.459)">
      <path id="Path_3316" data-name="Path 3316" d="M738.715,301.423V296.4q5.108.413,7.25.412a16.234,16.234,0,0,0,2.636-.165,2.5,2.5,0,0,0,1.359-.576,1.705,1.705,0,0,0,.474-.906,8.615,8.615,0,0,0,.1-1.524,7.414,7.414,0,0,0-.165-1.874,1.246,1.246,0,0,0-.68-.8,7.218,7.218,0,0,0-1.751-.453l-4.572-.659q-3.131-.453-4.243-2.431a11.775,11.775,0,0,1-1.112-5.685,10.332,10.332,0,0,1,1.195-5.478,5.682,5.682,0,0,1,3.254-2.513,18.563,18.563,0,0,1,5.232-.618,40.936,40.936,0,0,1,8.033.824v4.943a55.04,55.04,0,0,0-6.591-.453q-3.049,0-3.913.577a1.243,1.243,0,0,0-.618.8,7.423,7.423,0,0,0-.124,1.586,7.919,7.919,0,0,0,.124,1.689,1.068,1.068,0,0,0,.556.721,5.287,5.287,0,0,0,1.5.391l4.9.7a8.627,8.627,0,0,1,2.739.824,4.319,4.319,0,0,1,1.792,1.977,12.386,12.386,0,0,1,.865,5.191,12.677,12.677,0,0,1-1.112,5.973,5.277,5.277,0,0,1-3.028,2.637,16.693,16.693,0,0,1-5,.618A52.673,52.673,0,0,1,738.715,301.423Z" transform="translate(-738.015 -264.926)" fill="#4a4b69"/>
      <path id="Path_3317" data-name="Path 3317" d="M779.5,302.054V273.713h17.054v5.314H785.886v6.055h9.145V290.4h-9.145v6.344h10.669v5.314Z" transform="translate(-756.309 -265.186)" fill="#4a4b69"/>
      <path id="Path_3318" data-name="Path 3318" d="M839.839,302.054V282.446h-.288L834.4,302.054h-5.026l-5.108-19.608h-.288v19.608h-6.014V273.713h9.186l4.737,18.167h.288l4.737-18.167h9.1v28.341Z" transform="translate(-773.272 -265.186)" fill="#4a4b69"/>
      <path id="Path_3319" data-name="Path 3319" d="M890.895,295.328l-1.442-5.685h-8.362l-1.359,5.685h-6.427l7.58-28.341h8.98l7.538,28.341Zm-8.774-30.9v-.206l3.007-5.767h5.85v.206l-4.408,5.767Zm3.254,8.321h-.247l-2.76,11.617h5.808Z" transform="translate(-797.675 -258.459)" fill="#4a4b69"/>
      <path id="Path_3320" data-name="Path 3320" d="M921.572,302.054V273.713h16.312v5.314h-9.928v6.8h8.733v5.355h-8.733v10.875Z" transform="translate(-818.96 -265.186)" fill="#4a4b69"/>
      <path id="Path_3321" data-name="Path 3321" d="M959.742,300.867a5.659,5.659,0,0,1-2.76-4.037,76.552,76.552,0,0,1,0-18.414,5.659,5.659,0,0,1,2.76-4.037q2.2-1.256,7.353-1.257,5.19,0,7.394,1.257a5.588,5.588,0,0,1,2.739,4.017,54.9,54.9,0,0,1,.536,9.227,54.9,54.9,0,0,1-.536,9.227,5.586,5.586,0,0,1-2.739,4.017q-2.2,1.257-7.394,1.256Q961.945,302.123,959.742,300.867Zm10.34-4.511a2.756,2.756,0,0,0,.968-2.142q.205-1.689.206-6.591t-.206-6.591a2.758,2.758,0,0,0-.968-2.142,10.064,10.064,0,0,0-5.973,0,2.756,2.756,0,0,0-.968,2.142q-.207,1.689-.206,6.591t.206,6.591a2.754,2.754,0,0,0,.968,2.142,10.075,10.075,0,0,0,5.973,0Z" transform="translate(-834.329 -264.926)" fill="#4a4b69"/>
      <path id="Path_3322" data-name="Path 3322" d="M1016.576,302.054l-3.295-9.928h-4.12v9.928h-6.385V273.713h11.658a10.537,10.537,0,0,1,5.273,1.05,5.129,5.129,0,0,1,2.369,2.986,18,18,0,0,1,.6,5.149,17.432,17.432,0,0,1-.659,5.129,4.981,4.981,0,0,1-2.677,3.11l3.955,10.917Zm-1.627-15.489a1.6,1.6,0,0,0,1.009-1.051,9.312,9.312,0,0,0,.247-2.574,10.4,10.4,0,0,0-.226-2.616,1.49,1.49,0,0,0-.988-1.03,8.651,8.651,0,0,0-2.575-.268h-3.255v7.826h3.213A8.061,8.061,0,0,0,1014.949,286.565Z" transform="translate(-854.769 -265.186)" fill="#4a4b69"/>
      <path id="Path_3323" data-name="Path 3323" d="M1048.462,300.867a5.656,5.656,0,0,1-2.76-4.037,76.468,76.468,0,0,1,0-18.414,5.655,5.655,0,0,1,2.76-4.037q2.2-1.256,7.353-1.257,5.191,0,7.394,1.257a5.587,5.587,0,0,1,2.74,4.017,54.9,54.9,0,0,1,.536,9.227,54.9,54.9,0,0,1-.536,9.227,5.585,5.585,0,0,1-2.74,4.017q-2.2,1.257-7.394,1.256Q1050.666,302.123,1048.462,300.867Zm10.34-4.511a2.76,2.76,0,0,0,.968-2.142q.205-1.689.206-6.591t-.206-6.591a2.762,2.762,0,0,0-.968-2.142,10.064,10.064,0,0,0-5.973,0,2.759,2.759,0,0,0-.968,2.142q-.206,1.689-.206,6.591t.206,6.591a2.757,2.757,0,0,0,.968,2.142,10.075,10.075,0,0,0,5.973,0Z" transform="translate(-873.453 -264.926)" fill="#4a4b69"/>
      <path id="Path_3324" data-name="Path 3324" d="M1107.559,273.713h8.9q5.355,0,7.642,1.235a5.506,5.506,0,0,1,2.842,3.955,72.783,72.783,0,0,1,0,17.961,5.506,5.506,0,0,1-2.842,3.955q-2.287,1.236-7.642,1.236h-8.9Zm8.734,23.027a9.253,9.253,0,0,0,3.419-.412q.864-.412,1.091-2.039a57.161,57.161,0,0,0,.227-6.405,52.407,52.407,0,0,0-.248-6.406,2.508,2.508,0,0,0-1.091-2.039,9.088,9.088,0,0,0-3.4-.411h-2.349V296.74Z" transform="translate(-900.976 -265.186)" fill="#4a4b69"/>
      <path id="Path_3325" data-name="Path 3325" d="M1151.478,302.054V273.713h17.054v5.314h-10.669v6.055h9.145V290.4h-9.145v6.344h10.669v5.314Z" transform="translate(-920.343 -265.186)" fill="#4a4b69"/>
    </g>
    <path id="Union_26" data-name="Union 26" d="M-5404.215,281.335l-16.094-7.166v-7.837l16.11,7.173V245.535h-12.53v-7.16h19.69v42.961Zm-35.785,0V238.374h7.177l16.094,7.166v7.837l-16.11-7.173v27.969h12.53v7.16Zm232.05-17.781c0-.209.088-.3.3-.3h3.132c.209,0,.269.089.3.3.208,2.417,1.969,3.58,4.534,3.58,2.536,0,4.118-1.134,4.118-2.774,0-1.493-1.88-2.446-4.744-3.163-4.477-1.133-7.13-2.715-7.13-6.145,0-3.819,3.519-5.937,7.308-5.937,4.624,0,7.608,2.983,7.7,6.235,0,.21-.09.3-.3.3h-3.162c-.208,0-.269-.089-.3-.3-.3-1.849-1.91-2.774-4-2.774-1.939,0-3.49.746-3.49,2.3,0,1.759,2.3,2.565,4.951,3.312,3.55.985,6.923,2.476,6.923,5.787,0,4.237-3.193,6.623-8.056,6.623C-5204.521,270.594-5207.922,267.432-5207.95,263.554Zm-86.227,2.244c0-3.325,2.694-5,6.078-5a15.558,15.558,0,0,1,4.22.659v-.839c0-2.245-1.317-3.472-3.62-3.472a3.515,3.515,0,0,0-3.534,2.274.376.376,0,0,1-.419.27h-1.916c-.121,0-.21-.06-.21-.179a1.287,1.287,0,0,1,.029-.3c.6-2.275,2.545-4.282,6.05-4.282,3.472,0,5.957,2.1,5.957,5.239v7.215a4.357,4.357,0,0,0,.509,2.575c.029.06.06.09.06.15,0,.119-.089.149-.241.149h-2.364c-.21,0-.3-.09-.3-.3V268.4a6,6,0,0,1-4.909,2.156C-5291.392,270.558-5294.177,269-5294.177,265.8Zm2.455-.15c0,1.736,1.2,2.695,3.2,2.695a4.419,4.419,0,0,0,4.64-4.67,12.064,12.064,0,0,0-4.071-.66C-5290.074,263.012-5291.722,263.791-5291.722,265.647Zm-17.63.03a.269.269,0,0,1,.3-.3h1.917c.209,0,.27.09.3.3.238,1.737,1.646,2.665,3.893,2.665,2,0,3.471-.628,3.471-2.186s-1.316-2.1-4.371-2.574c-3.592-.57-5.118-1.737-5.118-4.372,0-2.754,2.514-4.282,5.688-4.282,3.354,0,5.42,1.707,5.778,4.312a.268.268,0,0,1-.3.3h-1.678c-.209,0-.239-.09-.3-.3-.45-1.468-1.976-2.1-3.594-2.1-1.915,0-3.262.658-3.262,2,0,1.467,1.2,1.976,4.221,2.516,2.874.509,5.389,1.346,5.389,4.192,0,3.024-2.515,4.7-6.017,4.7S-5309.352,268.491-5309.352,265.677Zm-37.952-2.934a7.474,7.474,0,0,1,7.484-7.815c4.552,0,7.336,3.593,7.336,7.755v.479c0,.21-.09.3-.3.3h-12.005c.239,2.934,2.094,4.88,5.03,4.88a4.31,4.31,0,0,0,4.4-2.754c.091-.24.212-.269.421-.269h1.945a.189.189,0,0,1,.21.209.791.791,0,0,1-.061.3,6.867,6.867,0,0,1-6.977,4.731C-5344.4,270.558-5347.3,267.145-5347.3,262.743Zm2.635-1.5H-5335a4.83,4.83,0,0,0-4.822-4.1A4.792,4.792,0,0,0-5344.668,261.246Zm-26.938,1.5a7.474,7.474,0,0,1,7.484-7.815c4.552,0,7.335,3.593,7.335,7.755v.479c0,.21-.09.3-.3.3h-12.005c.239,2.934,2.1,4.88,5.03,4.88a4.313,4.313,0,0,0,4.4-2.754c.091-.24.209-.269.421-.269h1.945a.189.189,0,0,1,.209.209.791.791,0,0,1-.061.3,6.866,6.866,0,0,1-6.976,4.731C-5368.7,270.558-5371.607,267.145-5371.607,262.743Zm2.634-1.5h9.671a4.829,4.829,0,0,0-4.821-4.1A4.792,4.792,0,0,0-5368.973,261.246Zm-12.571,4.76v-8.562h-2.664c-.21,0-.3-.09-.3-.3v-1.616c0-.211.091-.3.3-.3h2.664v-4.311c0-.209.089-.3.3-.3h1.735c.21,0,.3.09.3.3v4.311h4.968c.212,0,.3.089.3.3v1.616c0,.209-.089.3-.3.3h-4.968V265.8c0,1.676.778,2.545,2.365,2.545a7.515,7.515,0,0,0,2.844-.45.561.561,0,0,1,.21-.06c.149,0,.209.121.209.3v1.407c0,.269,0,.419-.238.509a9.093,9.093,0,0,1-3.2.509A4.178,4.178,0,0,1-5381.544,266.007Zm164.232,4.289c-.208,0-.269-.089-.328-.3l-3.4-13.4-3.4,13.4c-.06.208-.12.3-.329.3h-3.639c-.209,0-.269-.089-.329-.3l-4.685-20.228a.654.654,0,0,1-.029-.179c0-.119.088-.179.269-.179h3.252a.315.315,0,0,1,.357.3l3.013,15.246,3.639-13.813c.061-.209.149-.3.359-.3h3.042c.209,0,.3.089.357.3l3.642,13.813,3.013-15.246a.313.313,0,0,1,.357-.3h3.252c.181,0,.269.06.269.179a.615.615,0,0,1-.031.179L-5213.343,270c-.06.208-.121.3-.33.3Zm-31.052,0c-.208,0-.3-.089-.3-.3V249.71c0-.208.089-.3.3-.3h12.859c.208,0,.3.089.3.3v2.864c0,.209-.09.3-.3.3h-9.4v4.714h8.5c.211,0,.3.09.3.3v2.864c0,.209-.088.3-.3.3h-8.5v5.787h9.845c.209,0,.3.089.3.3V270c0,.208-.089.3-.3.3Zm-7.453,0a.511.511,0,0,1-.477-.238l-8.8-14.142V270c0,.208-.09.3-.3.3h-3.222c-.209,0-.3-.089-.3-.3V249.71c0-.208.089-.3.3-.3h3.192a.513.513,0,0,1,.478.238l8.8,14.142V249.71c0-.208.089-.3.3-.3h3.223c.208,0,.3.089.3.3V270c0,.208-.09.3-.3.3Zm-21.771,0c-.3,0-.428-.129-.428-.428V265.24c0-.3.128-.429.428-.429h4.63c.3,0,.427.13.427.429v4.627c0,.3-.128.428-.427.428Zm-37-.038c-.209,0-.3-.09-.3-.3v-14.43c0-.211.089-.3.3-.3h1.738c.209,0,.3.089.3.3v14.43c0,.209-.089.3-.3.3Zm-10.894,0c-.15,0-.27-.09-.359-.3l-5.539-14.251a.432.432,0,0,1-.031-.209.238.238,0,0,1,.269-.269h2.007a.391.391,0,0,1,.419.3l4.281,11.765,4.282-11.765a.39.39,0,0,1,.418-.3h2.006a.238.238,0,0,1,.271.269.438.438,0,0,1-.03.209l-5.538,14.251c-.09.209-.21.3-.36.3Zm-27.477,0c-.21,0-.3-.09-.3-.3V249.6c0-.209.09-.3.3-.3h1.737c.21,0,.3.089.3.3v20.359c0,.209-.088.3-.3.3Zm37.952-17.784c-.21,0-.3-.089-.3-.3V249.6c0-.209.088-.3.3-.3h2.575c.21,0,.3.089.3.3v2.576c0,.209-.089.3-.3.3Z" transform="translate(5964.313 229.085)" fill="#5369e9" stroke="rgba(0,0,0,0)" stroke-miterlimit="10" stroke-width="1"/>
  </g>
</svg>
