<svg
  xmlns:mapsvg="http://mapsvg.com"
  xmlns:dc="http://purl.org/dc/elements/1.1/"
  xmlns:rdf="http://www.w3.org/1999/02/22-rdf-syntax-ns#"
  xmlns:svg="http://www.w3.org/2000/svg"
  xmlns="http://www.w3.org/2000/svg"
  mapsvg:geoViewBox="-118.369112 32.716750 -86.725536 14.531518"
  viewBox="0 0 761 497.5">

  <path
    id="MX-AGU"
    title="Aguascalientes"
    class="selectable-item"
    d="M359.1,309.8l-2.3-2.3l-0.1-1.2l1.2-2.9l3.3-4.6l0.9-3.2l1.1-0.7l1.8-0.4l3.5-2l1.2-0.9l0.4-1.3l0.7-0.2
    l0.8,1.4l1.3,1.3l4.4,2.6l0.6,2.4l1.1,2l0,0l0.3,0.6l-0.2,1.6l2,2.1l-4.3,2l-2.5,3.5l-0.7,0.5l-3,1l-1.3,0.1l-2.2-1l-1.7-1.4
    l-4.2-0.4L359.1,309.8z"/>
  <path
    id="MX-BCN"
    title="Baja California"
    class="selectable-item"
    d="M75.1,137.9h-0.7l0,0l-0.8,0.1l0.1,0.4l-0.8,0.4h-0.7l-0.8,0.9l-0.3-0.7l0.2-0.8l3.1-3.8l0.6-0.1l0.1,1
    l-0.8,0.8v0.5L75.1,137.9z M47.7,125.9l0.6,0.4l0.8,2.9l-0.2,1l0.4,2.4l-0.7,0.9v2.1l-0.6-0.2l-0.5,0.3l-0.7-0.3l-0.6-1.4l-0.6-0.2
    l-1,0.6l-0.4-0.1l0.1-0.8l2.7-3l0.2-0.7l-0.6-1.6l0.5-1.9L47.7,125.9L47.7,125.9z M105.9,117.3l0.8,0.2l2.7,2.3l-0.5,0.5l-0.6-1
    l-1.7-0.9L105.9,117.3z M114.3,115.8l0.3,0.6l-0.3,1h-1.2l-0.4-1.6H114.3L114.3,115.8z M89.3,92.4v0.5l1.1-0.5v0.3l0.9,0.3l1.3,1.6
    l0.8,0.4l1.1,2.2l-0.6,0.9l0.1,1.2l1.8,0.8l2.9-0.2l0.3,0.3l-0.2,4.3l0.6,1.7l1.2,0.4l-0.3,1.9l-3-2.1l-1.7-2.4l-2.6-1.8l-1-1.9
    l-1.4-0.3l-0.2-1.1l-2-2.5l-0.2-0.9l0.8-1.9l-0.2-1L89.3,92.4L89.3,92.4z M67.7,79.9l0.6,0.8l-0.4,0.1l-0.3-0.3L67.7,79.9z
     M57.8,6.9L57,7.4L56.5,7h-1.3l-0.6,2l-0.5,0.5L54,10.8l-1.8,2.4l1.4,2L53,17l0.3,1.1l-0.4,2.7l0.2,1l-0.6,1l1,1l0.9,0.1l3.8,2.8
    l0,0l-0.5,1.7l0.9,4l-1.1,1.5l-0.7,2.4l-0.1,3.5L55.8,43l0.3,0.7l-0.2,2.2l0.6,2.2l1.4,1.3L57.4,50v0.7l2.8,1.8l0.6,3.5l-0.1,5.2
    l1.7,4v2.2l-0.3,1.3l0.2,0.8l-0.5,1.9l0.4,0.3l-0.7,2.2l1,2.1l0.6,0.4l1.7,4L66,81l0.3,0.9l1,0.2l0.6,0.9v1.8l0.4,0.9l0.8,0.3
    l0.4,0.7l1.2,0.1l0.3-0.9l1.8,0.8l1.2,1.5l0.3-0.1l1,1.2l0.9,0.5l0.7,1.1l1.6,0.8l2.1,2.3l1.5,0.8l0.1,0.6l1.4,0.7l2,2.5l1.4,1.2
    l0.3,0.9l-0.7,0.8v0.5l2.1,2.6l0.8,1.6l-0.6,1.2l0.4,1.6l-0.3,0.2l0.8,1.7l0.8,0.1l0.5-0.7l-0.4-0.4l0.4-0.6l0.5,0.3l0.5-0.4
    l0.4,0.8l0.6-0.1v0.4l0.4,0.1l0.1,2.1l0.4,0.9h1.1l1.3-1l1.1,0.6l1.4,4.5l0.8,0.8l0.6,3.5l2.6,1.5l2.4-0.6l0.5,0.4l0.1,0.7l0.8-0.2
    l0.1,0.6l-0.4,0.5l0.2,0.7L106,128l2,2.8l-0.5,2l0.6,1.4l-0.4,1.2l0.9,0.6l0.3,1l-0.3,2.5l0,0l-0.6-1.7l-0.9-0.3l0,0l-31.7-0.1
    l0.2-0.5l-0.3-0.5l-0.1-1.3l0.9,1.2l0.8-1.4l-1.6-0.4l-0.3-1.7l1.5-3l-0.4-1l-0.9,0.5l-0.5-0.5l1.3-2.9l0.7-3.2l-1.3-2.2l-1.6-0.6
    l-0.1-2l-0.4-0.4l-2.2-0.1v-0.8l-0.4-0.5l-1.5-0.9l0.1-0.6l-0.5-1.2l-0.9-0.5l-0.6-1.9l-0.5-0.1l-0.2-0.6l-1-0.7l-1-0.1l-0.2,0.3
    l-0.5-1.1l-0.7-0.4l-0.2,0.3l-0.5-2.7l-0.6-1.1l-1.1-0.5l-0.6,0.3l-0.8-1l-0.2-1.3l-1.2-0.6l-0.1-0.4h-0.4l-3.4-4.2l-2.9-1.5
    l-3.1-0.4l-1.6-2.5l-2.4-1.2h-0.8l-2-1.9l-1.2,0.2l-2-2.2l-0.5,0.7l-1.9-1.6l0.2-2.5l-0.3-1.5l-1.1-1.6l-1.6-0.6l0.6-3.6L33,75.7
    v-4.2L31.6,69l-2.1-1.2l0.2-1.4l-0.8-0.8L28.7,66l0.5,0.9l-0.5,0.3l-0.5-0.7h-0.5l0.6,1.3L27.9,68l-1-2l0.6-5.3l-0.6-3.5l-0.5-1
    L25.7,56l-1.4-1.3h-0.5l-2.3-3L20,51.9l-0.4-0.5l0.7-5.3l-1.4-2.7l-2.1-2.2L15,38.1l-1.3-1L13,37.2l-0.2-1l-1.2-0.9l-0.3-0.7
    l-0.4,0.1l-0.1-0.6l1-0.5l-0.4-0.9l0.5-1.2l-1.2-1.6L10.4,30l-0.8-1l0.5-0.1l1.6,0.9l1-1l0.2-2.6l-0.4-0.6l-1.3-0.3l-0.6-0.7
    l-1.2-0.2L9,22.6l-0.5-0.4H7.3L6.1,21L6,18l-0.8-2.8l-0.5-0.8l-2.1-0.8L2.1,13L0,7.1V5.8l60.2-5.5l-1.6,2.8l-0.7,0.2l0.5,1.8
    l-0.3,0.2L57.8,6.9L57.8,6.9z"/>
  <path
    id="MX-BCS"
    title="Baja California Sur"
    class="selectable-item"
    d="M180,237.1l2.8,4.6l0.4,1.9l-1.6-0.3l-0.7-1.1l-1.1-3.8L180,237.1L180,237.1z M128.5,233l3.1,0.2l1.1,1.4
    l0.9,0.1l0.8,0.6l1.3,2.4l-0.4,0.8l-6.9-5l-0.3-0.3L128.5,233z M169.3,232.8l1.8,1.6l-0.9,2h-0.5v-0.8l-0.7-0.3l0.1-0.5l-0.5-0.6
    l0.2-0.7l-0.3-0.5L169.3,232.8L169.3,232.8z M168.4,231.2l0.9,1.3l-0.6,0.3l-0.6-0.4l-0.1-0.8L168.4,231.2z M160.6,217.1l0.9,1.4
    l2,0.5l0.4,0.6l0.1,1.5l1,2.2l-0.5,0.1l-2.6-2l-0.7-2l-0.9-0.9L160.6,217.1z M125,212.5l0.2,1.4l-1.1,3.4l0.1,3.1l-0.8,0.7l0.7,1.3
    l-0.3,1.1l-0.6,0.1l-0.3,0.5l0.2,0.7l1.1,1.3l-0.2,0.3l0.9,0.8l0.4,1.3l-0.7,1.1l0.9,0.8l1.2,1.8l-0.1,0.4l-1.1-0.5l-0.1-0.7
    l-1.8-1.9l0.2-0.5l0.6,0.1l0.2-0.5l-0.1-1.1l-0.8-1l-1.3-0.7l-1.2,0.4l-0.7-0.4v-0.6l0.4-0.1l1.9-5.2L125,212.5L125,212.5z
     M161,211.4l-0.4,1.2l-0.5,0.2l-0.1-0.7L161,211.4z M125.8,206.5l-0.2,4.4l-0.4,1.4l-0.5-0.4L125.8,206.5L125.8,206.5z M125.9,201.3
    l0.2,2.1l-0.2,2.5h-0.3L125.9,201.3L125.9,201.3z M158.9,200.3l0.3,3.3l-0.7-0.4l-0.4-1.4L158.9,200.3z M152.4,200.3l0.5,1.2
    l-0.3,0.5l-0.4-0.2l-0.4-1.4L152.4,200.3L152.4,200.3z M151.7,190.5l-0.5,1l0.4,1.7l-1.2-0.7l-1.7,2.7v0.9l-0.6,0.6v0.7l-0.6,0.1
    l-0.1-0.8l0.4-0.4l0.2-1.7l1.1-1.7l-0.2-1.5l1-0.2l0.2-0.4l0.6,0.4L151.7,190.5L151.7,190.5z M146.5,188.6l0.2,0.8l-0.4,0.1
    l-0.2-0.5L146.5,188.6z M97.4,172.1l1.3,0.3l0.8,1.6l-1-0.6l-2-0.5l-0.1-0.3L97.4,172.1L97.4,172.1z M126,157.3l1.1,1l-0.3,1.2
    l-0.6-0.2l-0.6-1.3L126,157.3z M131.1,151.8l0.4,0.1l0.3,0.6h-0.9l-0.2-0.5L131.1,151.8L131.1,151.8z M47.7,139.4l1.4,0.8l-0.1,0.5
    l-1.4-1L47.7,139.4z M74.4,137.9h0.7l0,0l0.4,0.4l0.3-0.4l31.7,0.1l0,0l0.9,0.3l0.6,1.7l0,0l-0.1,0.5l1.3,1l0.4,2l1.1,1.3h0.4
    l1.2,1.7l2.8,0.9l0.5,0.6l0.9,0.1l1.6,1.1l0.7,1l0.7,3.7l1.6,1.8l1,2.2l-0.4,0.8l2.6,2.1l2.5,0.6l0.5,0.6h0.9l0.1,0.7h-0.6l-0.9,1
    l-0.2,1.6l1.7,2.4l0.9,0.5v0.5l0.9,0.7l0.3,1.4l-0.7,0.6l-0.5,1.3l1.2,0.7l0.3,1.2l1.1,0.7l0.7,1.7l1,0.8l1.6-1.4l-3.4-3.6l-0.2-2.9
    l-0.7-1.6l0.7-0.5l1.9,1.4l0.7,1.1l1.4,0.9l0.5,0.8l2.2,1.4l-0.2,3.5l0.4,0.6l2.7,0.9l-0.6,1.6v1.2l1.1,1.9l0.7,0.3l0.2,0.5l0.1,1.1
    l-0.4,0.7l2,5.2l-0.6,0.9l0.1,1.4l-0.5,0.7l0.1,1l0.4,0.6l0.1,1.9l0.6,0.7v1.1l1.8,1.5l0.2-0.2l0.8,3.1l1.8,2.4l2.6,0.3l-0.2,1.6
    l1.2,3.1l0.9,0.9l0.3,1.1l-0.3,0.2l0.4,1.5l0.6,0.8v1l0.7,0.5l0.4,1.3l0.9,0.5l0.5,0.9l0.5-0.1l0.8,0.6l0.2,1.3l1.6,2.2l0.7,2.1
    l-0.2,1.2l-0.7,1.8l-0.9,0.9l-0.2,3.1l0.2,1l1.1,1.4l0.1,2.9l1.1,1.2l0.7,1.6l1.5,1.4l4.3,0.9l1.2-0.1l0.1,0.3l-1.3,0.5l-0.8-0.6
    l-0.4,0.2l0.2,1.5l1.7-0.1v-0.8l1.2-1l0.1-1l-0.9-2.2l0.3-1.1l0.7-0.4l1.6,0.2v0.8l1.1,0.6l0.4,1.1l2.1,1l2.1,1.6l0.7,3.2l1.2,0.3
    l2.6-0.9v0.6l0.5,0.5l-0.7,0.9l0.1,2l3.2,3.2l-0.3,2l0.3,1.7l0.4,0.5l5.4,2.6l-0.3,0.8l1.4,2.1l-0.2,0.7l0.4,0.4l-0.5,4.4l-0.6,1.3
    l-1.9,2.3l-1,0.7l-2.2,0.5l-1.2,0.8v0.8l-2.1,1.1l-0.5,1l-0.9,0.7h-0.9l-0.6,0.7h-1.1l-2.4-2l-1.2-2.8l-1.5-7.1l-2.5-4.6l-1.8-2.4
    l-6.2-3.3l-11.6-11.5l-10.8-6.5l0.1-0.3l-1.2-1.2l-1.7-0.9l0.1-0.5l-0.6-0.1l-1-3l0.3-0.1l-0.5-0.6l-1-0.3l-0.1,1.1l-2.4-0.2
    l-0.1,0.8h-0.6l0.1-1.5l-0.7-2l-2.2-2.4l0.3-0.2l-0.6-0.5l-0.7,0.3l0.1,0.4l-1.4-0.2l-2-1l-0.3-0.7h0.5l0.1-0.8l-0.6-0.4l-0.2-0.8
    l0.6-1l-0.3-0.2l0.4-0.7l-0.4-0.1l0.2-0.4l-0.4-0.5l-0.6,0.9l0.3,0.8l-0.4,0.5l0.1,2.5h-0.7l-0.5-1.1l0.8-1.6l-0.6-1.4l0.8-0.4
    l0.7-1.7v-1l-0.9,0.1l0.2-1.9l0.9-2l0.3-1.8l0.7-0.1l0.1-2.4l-0.5-0.1l0.1-1.2l0.6-0.4l-0.4-0.3l-0.2-1.1l0.3-1l0.3-0.1l0.1-2.4
    l-0.1-1.3l-0.8-1.1l-0.3-2.9l-2-5.4l-0.9-1.2l-1.9-1.1l-0.9-2.9l-1.6-1.9l-1.6-0.4l-0.2,0.7l-0.4,0.1l-3.2-2.3l-0.7-0.3l-0.7,0.3
    l-0.8-1.2l-2-1.4v-0.4H108l-3.6-3l1,0.1l1.3,0.9l0.1-0.2l-1.1-0.8l-1.1-0.3l-0.7,0.2l-2.3-2l0.2-0.2l-0.4-0.5l0.4-0.6l-1.7-2.1
    l-0.9-2l-0.4,1.1l-1.5-0.7l0.3-0.3l0.5,0.2l1.6-1.6l0.4-1.3l-0.8-2.8l-0.6,0.6l-0.4,3.2l-0.6,0.5l-0.7-0.2l-0.4,0.8l0.1,1.8
    l-0.4,0.1l-2.1-1.3l-1.5-0.3l0.2-0.5l0.5,0.4l0.1-0.4l-0.5-0.2l-1.4,0.2l-0.8,0.9l-0.4,1.2l-0.6,0.3v0.6l-0.7,0.4l-0.8-0.3l-0.8-0.5
    l-0.7-1.4l-1.6-0.4l-1.6-3.7l-1.8-1.3l-2.2-0.6l-0.4,0.2l-0.2,0.6h-0.4l-1.3-1.3l-1.1-2l-1.1-0.8l-1.2-0.6l-2-0.3l-0.8,0.7l-2.4-1.6
    l-0.5,0.4l-0.5-0.3l0.1-0.8l-0.6-0.4l-0.5,0.1l-0.2-0.4v-3.5l-0.5-1.6l-2.3-1.9l-3.3-1.2l-1.2-2.2l-1.7-1.2l-0.1-1l-0.7-0.5
    l-0.6,0.9l-0.8-0.4l-0.3-0.9l-1-0.5l-0.6,0.3l-1.1-2.8l-0.8-0.8l0.8-0.4l1.1,0.9l2.3-0.2l1.5,0.2l0.4,0.5l1.4-0.2l1.6,0.3l0.5,0.5
    l1.6,0.3l2.8-0.2l0.6,0.4l2.4-1.3l0.6,0.4l0.8-0.1l0.2-0.6h-0.6l1.1-1.2l0.9,0.3l-0.5,2.5l0.8,1.3l1.5,1.2l1.3,0.4l1.3,1.2l-0.1,0.4
    l0.8,0.3l1-1.1l0.1-0.9l2.1,0.7l1.6,3l0.9,0.1l0.6-1.2l-1.6-1.6l0.1-1.1l0.7,0.6l0.2-0.4l-0.6-0.4l0.3-0.6l-0.5-1.7l0.2-0.9
    l-1.8-1.4l-1,1.9l0.2,1.1l-3.2,1.2l-1.6-1.2l0.2-0.5l0.6,0.5l-0.7-2l1.2-1.7l-0.5-0.5L74.4,137.9L74.4,137.9z"/>
  <path
    id="MX-CAM"
    title="Campeche"
    class="selectable-item"
    d="M640.6,386.9l0.5,0.8l-0.7,0.6l-0.5,0.2l-1.1-0.6l-0.4,0.3l0.4,0.3l-1.7,1.3l-0.5-0.7l-0.3,0.6l-2.1,0.9
    l-1.1,0.1l-0.5-0.6l0.3-0.3l2.4-0.4L640.6,386.9L640.6,386.9z M669.3,333.5l-0.2,7.3l4.1,0.5l1,2l0.5,0.2l1.1-0.4l0.9,1l0.5-0.1
    l0.4-1l0.8-0.7l0.4,0.3l1,1.8l-0.1,0.9l0.6,1l1.8,1.2l2,4.5l3.9,2.1l1.2,2.5l3.2,3.6l0.8,3.4l0.4,0.5l0,0l1.3,1.8l5.3,4.2l3.4,4.7
    l-0.2,5.9l-1.2,0.7l-0.4,0.7l0.2,2.5l-0.8,5.1l0.2,1.3l1,1.2l0.2,0.7l-0.5,1.4l0.8,0.5l-0.6,1.7l0.5,1.4l0.3,4.7l-0.6,1.3l-2.4,2.8
    l0.2,2.5l0,0v3.3h-45.9l0,0v-1.6l-4-1.6l-0.7,0.4l-0.8-0.9l-1.6-0.7l-1.6-1.5l-3.7-0.8l-2.8,0.1l-0.3,1.3l0.3,1.8l-0.3,0.7l-1.7,0.1
    l-1.3,0.6l-2.2-1.1l-1.5,0.1l-1.3-0.7l-0.9-1.4l-3.5-2.3l-1.2-1.8l-1.1-2.6l-0.5-0.3l0.2-2l-1.1-1.4l-0.4-0.2l-0.1,0.4l-0.5,0.1
    l-0.7-1.1h-1l-1.4-1l-0.6-0.9l-1.1-3.7l0,0l3.1-0.6l9.8-0.6l0.9,1.4l1.5,0.8l-0.6,1.2l-0.3-0.4l-0.3,0.3l-1-1.3l-0.7,0.9l-0.7-0.4
    l-0.2,0.2l0.2,0.7l-0.5,0.6l0.6,0.7l1.2-0.2l-0.5-1.1h0.8l0.3,0.5l0.6-0.1l1.1,0.7l0.2,0.6l6.8,1.7l1.4-0.1l0.2-0.7l0.7-0.7l4.5-1.5
    l0.8-2.9l0.6-0.3l0.3-1.3l-0.2-0.7l-1.1-1l-0.9,0.7l-1.2-0.6l-0.3-1l0.6-0.5l-0.1-0.8l1-1l-0.8,0.2l-0.7,1.3l-0.8,0.7h-0.5l-0.8,0.8
    l-0.1,0.6h-0.6v-0.2l2.5-2.6l6.8-3.7l4.8-3.5l4.9-4.5l0.5-0.9l-0.1-1l0.5-2l-0.2-2.2l0.7-1.8l-0.5-0.6v-0.6l0.9-1.1l0.2-1l3.8-2.9
    l1.4-2.5l-1-2.7l0.3-1.4l-0.4-1.3l0.4-0.3l-0.4-4.5l0.3-0.8l-0.5-3.4l1.3-3.6l0.4-3L669.3,333.5L669.3,333.5z"/>
  <path
    id="MX-CHP"
    title="Chiapas"
    class="selectable-item"
    d="M576.1,458l0.2-0.6l0,0l-0.1-0.4h0.4l0.8,1.1L576.1,458z M575.7,454v-0.8l0,0l-0.1-2.1l0.5-1.5l-1.2-2.9
    l0.1-0.9l2.2-6.3l2.9-2.6l0.8-3.5l0.8-1v-2l0.3-0.9l0,0l0.9-1.1l2-0.9l3.7-2.9l0,0l2.5-3.2l0.1-1.6l1.4-1.9l1.2-0.8l0.6-1.2l0.8-7.1
    l1.7-0.3l0.5-0.6l2.1,0.9l1.4,1.7l0.8,0.4l2.8-0.1l-0.3,1.7l-1.4,2.1l-0.1,0.6l0.4,0.9l2.1,2.2l-0.3,1.9l0.4,0.3l1.2-0.1l0.4-0.4
    l0.5,0.2l1.2,1.9v0.7l0.7,0.9l0.8,0.3l1.9-0.8l2.4-2.2l5.8-4.3l0.6-0.8l3.3-1.2l0.4-0.8l-0.4-1.8l0.1-0.4l0.4,0.1v-0.4l1.8,0.5h2
    l0.7-1.8l1.5,0.4l-0.1,0.6l0.6,0.3l0.6-0.4l1.2,0.2l1.2-0.3l1.1,1.4v2l2.6,1.3l1.3,3.3l-0.8,2.7l4.3,1.2l0.2,0.8l1.3,0.4l1.1,1.8
    l-0.8,0.3l-0.5,1l0,0l-0.7,0.1l0.6,1h0.8l1,1.1l0.8-0.4l0.9,0.3v0.8l0.5,0.7l0.6,0.3l0.3,1l1.1,1.2l1,0.2l0.3,1l1.4,1.4l0.1,0.6
    l1.3,0.4l0.5,0.6l0.3-0.3l1.1,0.4l0.2,0.9h1l0.9,0.7l1.1-0.1v0.5l2.1,1.2l1.4,2.2l0.3,3.2l0.8-0.1l0.1,0.5l-0.7,0.2l0.2,0.4l0.8-0.3
    l0.4,0.5l0.9-0.3l0.6,0.6l0.6-0.3l0.5,0.7l-0.2,0.5h1.7l0.4,0.6l0.1,0.6l-0.4,0.4l0.3,0.5l-0.3,0.9h-0.5l-0.2,0.6l0.4,0.4l-0.8,1.6
    l0.8,1.1l-0.7,0.4l0.6,0.3v0.4h-0.6l0.3,1.4l-32.1-0.3l-12.2,21.1l3.9,5l-1,1.6l-0.8-0.1l-0.3,0.7l0.1,2.5l-1,1.4l0.9,4.3l-0.7,1.2
    l-0.4,1.5l-0.9,0.7l-4.5-4.1l-11-11.6l-0.1-0.9l-0.8-0.2L595.7,470l-5.4-4.3l-6.1-4.2l-3.8-1.8l0.3-0.4l0.8-0.1l0.3,0.6l0.6-0.3
    l0.1-0.5l-1.1-1.8l-4.7-1l-0.7-0.9L575.7,454L575.7,454z"/>
  <path
    id="MX-CHH"
    title="Chihuahua"
    class="selectable-item"
    d="M343.8,107.5l-2.3,4.2v0.3l1.7,0.6v1l-0.7,1l-0.8-0.3l-0.7,0.3l-1.7,4l-1.4,1.1l-1.6,0.6l-2.3,3.8l-0.6,1.1
    l0.9,1.4l-0.9,1.4l-2.7,6.8l-0.6,0.4l-1.8-0.7v1.6l1.1,0.2l0.5,1.5l-0.3,0.5l-1.9,0.4l0.8,1.4l-0.1,0.8l-0.6,0.8l0.7,0.8l0.1,0.7
    l-1.1,1.2l0.8,4.5l1.1,0.5l0.2,0.8l0.1,1.1l-0.5,1.1l0.7,3.7l0.2,4.8l0.5,0.7l1.8,0.8l-0.4,1.5h-1.1l-1.1,1l-1.9,0.9l0.4,0.8
    l-0.1,1.3l2.1,1.9l1.1,1.8l0,0l-1.1,0.2l-1.1-0.9l-0.5,0.7l-0.3-0.2l0.4-0.7l-0.8-0.1l-3.2,1.1l-1.5-0.6l-0.9,0.8l-1.4-0.3l-0.7-1
    l-1.4-0.2l-1.4-0.9l-0.7,0.3l-0.3,0.7l0.5,0.7l1.5,0.1l-0.1,1l-2.5,0.4l-1.1,1.5l-1.5,0.5l-1.9,3.1l0.2,1.3l-0.2,0.8l-0.4,0.2
    l-1.7-0.2l-1.7,0.9l-1-0.2l-1.7-1.2l-2-1.9l-2.3,0.5l-1.2-0.3l-0.7-0.7h-0.5v1.1l-1.6,0.7l-0.5,0.6l-0.6,0.1l-0.4-0.5l-1.7,1
    l-0.2-0.6l-1.6-0.5l-1.3,0.2l-1.1-1.9l-1.6,0.3l-0.8-1.1h-1l-1.6-1.4l-1.9-0.2l-0.3-0.6l-1.3-0.7l-1-1.9l-1.1-0.2l-1.9-1.2l-1.3-0.1
    l-0.7-0.9l-0.8,0.5l-0.2,1.3l-1.8,0.6v1.8l-0.6,0.5l-0.9,3.4v1.6l-0.9,1.5l0.1,0.5l1.1,0.5v1.1l-0.3,0.6l-2,0.9l-0.9,0.9v1.4l-1-0.2
    l-0.4,0.4l0.4,2.1l-0.9,0.3l-1.7,4l1,1.6l0.6,1.9l-2.1,3.4l-3.5,2.7l-1.2,1.6l-0.6-0.3l-0.7-1.2l-2-0.3l-0.5-0.9l-1.6,0.2l-1.1-0.7
    l-0.3-1.3l-2.3,0.8l-0.3,0.6l0,0l-2.1-2.8l-0.6-3.2l-2.9-4.9l-2.4-0.7l-3.2-0.3l-3.8-1.1l-1.2-4.7l-3.1-5l-0.1-1.9l-1.4-0.9
    l-0.3-1.1l0.5-2l-0.5-0.8l0.4-2.3l-1.1-2.3l-1.2,0.2l-0.6-0.2l-0.1-2.9l-0.7-0.4l-4.9,0.2l0,0l-1.8-0.4l-2,0.6l-3.5-1.8v-0.5
    l0.7-0.4l-0.5-3.4l1.2-3.1v-1.7l-1.6-4.1l-1-1.4l-0.6-2.1l-2.8-1.7l-0.5-0.6l0.7-2.4l-0.4-1.7l-2.1-3l-1.8-0.7l-0.4-0.7l0.6-2.8
    l-1.6-1.1l-0.2-0.6l1-1.4l2.5-0.5l1.4-0.8l0.8,0.1l1.8,1.3h0.5l1.4-1.1l1.1-0.1l1-1.2l0.9-0.1l0.6-1.2l-2.2-0.9l-1.6-1.8l0.4-2.9
    l-0.8-1.9l0.2-1l1.5-2.6l-0.8-2.7l0.8-1.3l-0.5-2.6l1.5-1.3l0.1-2.7l1.4-0.7l0.3-0.5l-0.3-5.7l0.2-0.9l0.8-0.9v-2.6l-0.7-6.2l-0.8-1
    h-0.6l-0.3-1l0.6-4.9l1.3-2.6v-1.1l-1.4-1.3l-0.2-1l0.9-0.5l0.3-1.8l-1.9-6.2l0.1-1.2l-1.1-1.5l0-1l0.7-1.6l-1-0.9l-0.1-2.4
    l-2.7-2.7v-0.6l1.6-0.1v-1.8l0.5-1.3l-0.2-1.6l-1.6-2.8l-0.5-1.9l0.9-1.3l-1.1-1l0,0h14.1V27.8h42l1,1.1l1.6-0.1l1,0.6l0.9,1l1.8,4
    l0.8,0.4l1.1,2.4l3.2,2l1.8,0.2l1.2,0.8l0.6,1.5h0.6l0.4,0.7h0.5l2.2,2.7l0.2,0.8l1.3,0.5l0.4,0.6l1.5,0.6l1.2,1l1.1,2.4l1.2,0.6
    l0.4,0.8l1.9,1.2l0.5,0.9l-0.2,0.5l1,0.2l1.5,1l0.3-0.4l0.9,0.9l0.9-0.2l0.2,0.6l0.4-0.2l0.6,0.7h0.4l-0.1,0.4h1.1l0.8,1.3l0.9,0.5
    l0.9-0.1l0.6,0.7l0.2,1.3l1.1,0.4l0.9,1l0.8,2.1v1.5l0.5,0.8l-0.2,0.8l1.1,0.7l-0.2,0.3l1.5,1.6l-0.1,0.5l1.4,1.1l0.5,1.6l-0.2,1.5
    l0.3,1l-0.5,2.1l0.4,0.2V80l0.4,0.7l-0.3,0.4l0.3,1.1l1.1,0.9l1.1,1.9l1.3,3.9l3.5,2.7l0.4,0.8l1.1,0.6l0.5-0.3l2,1l0.1,0.4l0.6,0.2
    l-0.1,0.6l1.2,1.7l1.4,0.6l1.4,1.3l2,0.9l3,0.4l1.4,0.6l0.4-0.2l0.2,1.3l0.4-0.3l1,1.4l1.5,0.3l0.3,0.4h2.3l2.1,2.1l-0.1,0.5
    l0.6-0.1l0.5,0.8L343.8,107.5z"/>
  <path
    id="MX-DIF"
    title="Distrito Federal"
    class="selectable-item"
    d="M457,379.2h-1l-2.4,0.8l-0.9-0.8l-0.6,0.1l-1.3,1.1l-1.3-1.2l-1.3,0.2l0,0l-2.6-4.4l-0.1-1l3.2-2.8l0.5-2
    l2.2-2.5l0.3,0.4v1.1l1.6,1.9l0.5,1.5l2.1,1.8l0.3,1.5l0.5-0.4l0.2,0.5l0.4,1.6l-0.5,1.7L457,379.2z"/>
  <path
    id="MX-COA"
    title="Coahuila"
    class="selectable-item"
    d="M432.5,143.1l-0.3,0.6l-1.1,0.8l-1,0.1l-1.9,1.3l-5.5-0.9l-3.7,0.3l-1.1,0.6l-0.5,2.3l-1.7,2.6l-0.3,0.8
    l0.2,2.3l-0.6,0.5l-2.2-0.1l-2.1,0.9l-1.2-0.4l-1.2,1l-1.8,3l0.2,3.3l2.8,2.1l0.6-0.1l0.7-3.1l0.6,0.1l2,1.5l0.4,5.1l-0.8,2.2
    l-1,0.8l-1.1,2.2h-3.2l-2.6,1.7l-3.5,0.3l-0.9,0.9l-1,2.7l-2.4,2.4v1.3l4.5,4.8l2.7,2l1,3.1l1.4,1.1l0.9,0.1l0.4,0.6l-1,2.9l0.2,2.5
    l0.8,1.8l1.1,0.1l0.8,0.7l2.1,0.1l0.4,0.4l0.6,3.4l0.8,0.9l3.3,1.9l-0.5,1.1l3.6,0.6l0.5,0.8l0.9,0.3l0.4,0.9l-0.8,0.9l-0.1,1.1
    l-0.3,0.2h-1.9l-3.4-0.9l-1.3-1.5l-1.7-0.2l-0.9,0.3l0.3,0.8l-1.8,0.6l-1.7,3.2l0.9,2.9l0.1,2.2l-0.2,0.4l-2.4,0.1l-0.2,0.4l0.3,0.8
    l-0.3,1.2l1.4,1.6l0.1,1.4l0.6,1.2l-1,3.3l0,0l-2.1-0.5l-0.8,0.3l-0.2,0.8l-1.4,0.4l-2.1-0.8l-1.4-1.3l-1.9-3.8l-1.2-0.8l-3-0.4
    l-2.3,0.5l-0.9,0.9h-2.8l-0.6-3.6l-1.2-0.3l-1.5,0.4l-2.2-3.1l-2-1.7l-2.5-1l-2.5-1.7l-9.4-0.6l-5.4,1.1l-0.6,0.5v1.6l0,0l-3,2
    l-0.6,1l-0.5,2.1l0.5,1.7l-0.3,0.5l-0.7,0.2l-2.1-1.4l-2.8-0.2l-3.4-1.6l-1.3-1.2l-0.6-0.9l-0.5-3.1l-2.4-1.9l-0.6-1.7l-1.8-2.1
    l-0.6-3.1l1.4-1.4l2.3-0.4l-0.8-1.2l-1.3-0.3l-0.7-0.8l0.1-0.9l1.4-2.1l1.1-0.8l1.2-3.1l-1.2-4.5l-0.2-2l0.4-2.3l-1.7-3.9l-0.2-1.4
    l0.4-2.9l-1.4-4l-2.3-2.1l-0.8-1.2l-1.2-1.2l-3-0.8l-0.7-0.6l0,0l-1.1-1.8l-2.1-1.9l0.1-1.3l-0.4-0.8l1.9-0.9l1.1-1h1.1l0.4-1.5
    l-1.8-0.8l-0.5-0.7l-0.2-4.8l-0.7-3.7l0.5-1.1l-0.1-1.1l-0.2-0.8l-1.1-0.5l-0.8-4.5l1.1-1.2l-0.1-0.7l-0.7-0.8l0.6-0.8l0.1-0.8
    l-0.8-1.4l1.9-0.4l0.3-0.5l-0.5-1.5l-1.1-0.2v-1.6l1.8,0.7l0.6-0.4l2.7-6.8l0.9-1.4l-0.9-1.4l0.6-1.1l2.3-3.8l1.6-0.6l1.4-1.1l1.7-4
    l0.7-0.3l0.8,0.3l0.7-1v-1l-2.2-0.6v-0.3l2.3-4.2l0,0l0.7,0.1l0.3-0.6l0.4,0.1l-0.3,0.6l1.4,0.7l0.1,0.5l0.4-0.4l0.3,0.4l1.6-0.1
    l0.9,0.4l0.9-0.4l0.5-2.2l0.3,0.2l0.3-1.1l0.8-0.1l1.1-1.7v-0.6l0.6-0.2l0.4,0.3l1-0.5l0.2-0.7l0.6,0.2l0.5-0.3l-0.2-0.7l-0.8-0.4
    l0.4-0.8l0.2-1.8l1-0.2l-0.1-0.3l0.7-0.9l-0.4-0.2v-0.9l0.7-1.2l-0.1-1.1L359,93l0.3-1.6l0.5,0.1l0.1-1.2l1.2-1.1l-0.1-0.4l0.7-1.6
    l1.1,0.2l1.4-0.6l0.6,0.3l0.9-0.6l-0.1-0.5l2.7,0.5l0.7-0.6l0.4-1.6l1.1-1l1.4,0.3V84l2.1,0.3l1.6,1.4l1.4,0.2l0.5-0.1v-0.3l1-0.1
    l1.6,0.2l0.3,0.4l0.5-0.4l2-0.3l0.5,0.3l-0.1,0.5l0.8-0.2l1.7,0.8l0.4-0.2l0.4,0.3l0.4-0.3l0.3,0.4l1.9-0.6l0.1-0.6l0.6-0.5l0.2,1.5
    l2-0.8l0.2,1.1l1.1-0.5l0.2,0.2l-0.4,0.3l0.4,1l0.5,0.4l0.3,1.4l1.2-0.2l0.4,0.6l-0.3,1.5l0.6,0.4l0.2-1.3l0.3-0.3l0.5,0.1l0.1,1.6
    l-0.5,1.1l0.3,0.3l1.9,0.2l0.6,1.1l2.2,0.5l1.3,2.5l1.6,0.8l1.4,1l0.3,0.8l2,1l0.8,1.7l-0.2,0.4l2.4,1.8l0.4,0.9l0.4,3.7l0.5,1.2
    l0.7,0.1l0.7,2l0.7,0.1l0.3,0.6l0.1,1.3l0.6,0.6l0.2,2.1l1.3,0.6v0.8l1.2,0.8l-0.4,1.1l0.6,0.8l1.2,0.4l-0.1,0.4l-0.6,0.2l0.7,0.9
    l-0.2,1.4l1.5,2.4v1.1l1,1.1l0.8,0.1l0.3,1.1l3.1,1.4l0.9,1.8l0.8,0.5l0.2,1l0.8,1.2l0.9,0.1v1.1l1,1l-0.2,1l0.7,1.1v1.1l0.7,0.1
    L432.5,143.1z"/>
  <path
    id="MX-COL"
    title="Colima"
    class="selectable-item"
    d="M341.2,382.2l-2.5,2.2l-1-0.3l-0.4,0.3v1.8l-1.9,1.2l-0.7,1.7l0,0l-5.5-4.4l-5.2-2.8l-4-1.4l0.1-0.8h0.5
    l0.1-0.6l-0.5-0.5l-1.1-0.6l-1.8,0.9l-0.2-0.6l-1.8-0.7l-4.5-1.2l0.3-0.4l0.6,0.4l0.2-0.3l-0.6-0.2l0,0h1.9l1.5-1.8l1.1,0.5l0.6-0.1
    l0.5-0.8l0.9-0.6l0.5,0.4l3.8-0.9l1.3,0.4l1.1-0.3l3.1-2.3l3.2,0.3l1.4-0.2l3.2-1.7l2.5-2.4l0.6,0.1l0.5,2.9l-0.2,1l1,0.8l0.2,0.8
    l1.1,0.5l-0.5,1.8l0.1,3.1l-0.6,1.3l0.8,1.5L341.2,382.2z"/>
  <path
    id="MX-DUR"
    title="Durango"
    class="selectable-item"
    d="M249.4,200.8l0.3-0.6l2.3-0.8l0.3,1.3l1.1,0.7l1.6-0.2l0.5,0.9l2,0.3l0.7,1.2l0.6,0.3l1.2-1.6l3.5-2.7l2.1-3.4
    l-0.6-1.9l-1-1.6l1.7-4l0.9-0.3l-0.4-2.1l0.4-0.4l1,0.2v-1.4l0.9-0.9l2-0.9l0.3-0.6v-1.1l-1.1-0.5l-0.1-0.5l0.9-1.5v-1.6l0.9-3.4
    l0.6-0.5v-1.8l1.8-0.6l0.2-1.3l0.8-0.5l0.7,0.9l1.3,0.1l1.9,1.2l1.1,0.2l1,1.9l1.3,0.7l0.3,0.6l1.9,0.2l1.6,1.4h1l0.8,1.1l1.6-0.3
    l1.1,1.9l1.3-0.2l1.6,0.5l0.2,0.6l1.7-1l0.4,0.5l0.6-0.1l0.5-0.6l1.6-0.7v-1.1h0.5l0.7,0.7l1.2,0.3l2.5-0.2l2,1.9l1.7,1.2l1,0.2
    l1.7-0.9l1.7,0.2l0.4-0.2l0.2-0.8l-0.2-1.3l1.9-3.1l1.5-0.5l1.1-1.5l2.5-0.4l0.1-1l-1.5-0.1l-0.5-0.7l0.3-0.7l0.7-0.3l1.4,0.9
    l1.4,0.2l0.7,1l1.4,0.3l0.9-0.8l1.5,0.6l3.2-1.1l0.8,0.1l-0.4,0.7l0.3,0.2l0.5-0.7l1.1,0.9l1.1-0.2l0,0l0.7,0.6l3,0.8l1.2,1.2
    l0.8,1.2l2.3,2.1l1.4,4l-0.4,2.9l0.2,1.4l1.7,3.9l-0.4,2.3l0.2,2l1.2,4.5l-1.2,3.1l-1.1,0.8l-1.4,2.1l-0.1,0.9l0.7,0.8l1.3,0.3
    l0.8,1.2l-2.3,0.4l-1.4,1.4l0.6,3.1l1.8,2.1l0.6,1.7l2.4,1.9l0.5,3.1l0.6,0.9l1.3,1.2l3.4,1.6l2.8,0.2l2.1,1.4l0.7-0.2l0.3-0.5
    l-0.5-1.7l0.5-2.1l0.6-1l3-2l0,0l0.4,0.5v1.6l0.8,0.3l0.4,1.1l1.5,0.7l0.8,0.9l-0.8,4.9l1.2,0.4l1,4l-1,0.5v0.4l0.5,0.4l-0.1,0.7
    l-6.1,0.6l-1.7-0.2l-0.8,0.9l-2.7-0.9l-1-0.7l-1.1-0.1l-2.2,0.8l-2.2-0.7l-3.9-0.3l-1.7,1.4l-0.3,1.5l-2.4,1.8l-2.1,2.8l-2.3,2.1
    l-2.4,0.7l-0.2,1.3l0.8,0.5l0.4,1.6l-0.3,1.7l0.4,1.9l-0.5,1.2l0.9,4.3l-2.8,2.4l-2.3,2.9l-0.1,1.9l-1.3,5.8l-0.6,0.4l-1.4,2.7
    l-0.1,1.3l0.9,3.1l-0.2,5.5l-0.2,0.6l-3.2,1.4l-1,1.5l-1.2,3l0,0l-2.9,1.3l-0.4,1.4h-0.5l-1.8-1.1l-1-2.1l-2.5-2.4l-1.7-0.4
    l-1.4-1.8l-1.4,2.6l-0.8,0.9h-0.7l-2.2-4.6l1.7-1.8l1.7-0.9l0.6-0.9l-0.1-1.2h-1.1l-0.5-0.4l-0.6-2.5l-2.1-0.2l-1.3-0.6l-1.5-1.8
    h-0.5l-0.9,1.3l-1.7,0.4l-2.2-2.6l0,0l-2.1-2.2l-0.6-0.1l-0.9,0.6l-2-0.1l-0.6-1.3l-0.1-2.3l-1.2-1.3l-0.7-1.7l0.3-0.9l-1-2.9
    l-0.4-2.8l-1.7-1.6l-0.9-2l-1.1-1.2l-0.6-2.9l-0.7-1.1l-0.8-2.6l0.3-0.9l-1-0.9l-0.1-2.2l-1.7-2.3l-0.1-1.1l-1.1-0.3l-0.9-1.4
    l-1.5-1l-4-1.2l-0.7,1l-2.8,2.1l-1.3,0.2l-0.7,0.6l-0.7-0.5l-0.8,0.2l-0.6-2l-1-1.4l-0.8-4.1l-0.2-0.2l-0.6,0.4l-0.6-0.2l-1.2-4.5
    l-1.3-0.3l-0.9-2.6l-2.3-0.2l-0.5,0.4l-1.2-1l0.3-1.4l-1.2-2.4l-0.8-0.6L248,217l-1-0.6l0.5-2l0.1-5.1l1.3-3.2l-0.1-0.7l-0.5,0.1
    l-0.6-0.7l1.7-2.2l1.2-0.8l-0.1-0.7l-0.7,0.2L249.4,200.8z"/>
  <path
    id="MX-GUA"
    title="Guanajuato"
    class="selectable-item"
    d="M434,314.4l0.5,0.5l-0.1,2.1l-1.1,1.9l2.5,0.6v1.2l-0.7,1.4l-1.5,0.7l-0.6,1l-1.1,0.2l-1.7-1.8l-1.5,0.6
    l-2.2,3.3l0.1,1.5l-0.7,1.6l-0.8-0.5l-0.2,1.1l-0.7,0.4l-2.7-0.4l-1.5,0.7l-4.6,0.3l-0.7,1.4l-0.6,3.8l0.1,0.8l1,0.7l0.6,1.7v2.7
    l1.1,1.9l2,1.4l0.7,1.7l0,0l-0.4,1.1l0.6,1.2l0.1,1.3l-0.5,1.8h0.7l-0.1,1l-1.2,1.1l-2.1,0.3l-0.7,0.8l-0.5,1.4l-0.6,0.2l0.3-1.5
    l-0.5-0.2l-1.9,0.5l-1.4,1l-3.4-0.2l-2.6-0.9l-1.3-0.1l-0.6,0.3l-0.3-0.1l0.2-0.5l-0.5-2.3l-2.2,0.6l-1.4-0.4l-0.7,0.6l0.3,0.8
    l-1.2,0.5l-1.8-0.7l-2.5-0.2l-0.5-0.5v-3.2l-0.5-1.7l1,0.5l0.6-0.3l-1.3-1.8l-1.1-0.8l-1.4,0.2l-0.6-0.4l-2.1,0.7l-2,2.8l-0.9-0.3
    l-2.2,0.1l-0.5-0.4l-1.2,0.7l-0.8-0.1l-0.4-0.5l-0.7-2.9l0.4-0.4l-0.6-0.5l-0.5,0.1l-0.3-0.5h-0.9l0,0l0.4-2.8l1.8-3.4l-1.6-2.9
    l-1.6-0.4l-0.5-1.3l2-2l0.1-0.8l1.8-1.5l1.9-4l2.5-1.9l1.1-2.7l-0.1-0.6l0.5-0.7l1.5-0.1l0.4-0.4l0.7-1.4l-0.8-0.5l0.6-2.2l-0.7-0.1
    l1.5-5.5l-0.1-0.7l1.2-1.4l-0.7-0.8l1.2-1.3l0,0l1,0.6l0.8-0.9l0,0l1.2,0.7l2.9,0.3l1.3,0.7l4.6,1.1l1.2,0.8h1.1l5,3.7l2.7,1.4h2.8
    l1.5-0.6l-0.1-1.1l0.6-1.8l1.1-0.7l3.9,1.3l3.1,2l0.3,0.7l0.5-0.1l1.7,2.1l1.8-0.2l0.4-0.5l0.7,0.8h1.6L434,314.4z"/>
  <path
    id="MX-GRO"
    title="Guerrero"
    class="selectable-item"
    d="M418.1,379.5l0.3,2.9l-1,1.9l-0.7,4.2l0.4,1.6l1.8,0.8l0.1,1.2l-0.2,0.7l-1.7,1.8l0.6,0.7l1.3-0.3l1.5,0.3
    l0.2,1.1l1.6,2V398h0.6l0.3-0.4l0.2,0.4l2-2.2l2.5-0.6l-0.7-1.4l0.4-0.6l1-0.5l0.8,0.4l3.5-0.2l0.3-0.6l0.9-0.4l0.9,0.3l0.4-1.6
    l1.8-0.3l-0.4-1.7h0.8l0.9,1.1l2,0.7l0.8-0.5l0.8,0.1l0,0l0.5,0.8l-0.6,1.1l0.4,0.4l1.1-0.2l1.1,0.5l2,2.7l5.5,0.7l2.3,2.3l0,0v1.2
    l1.4,1.2l1.3,0.6l1.2,2.2l3-0.2l0.2,0.8l-0.8,1l4.2,1.8l0.1,1.1l1.4-0.3l0.5,0.3l0.9-0.9l1.5-0.1l1.6,2l1.6,0.8l0,0l-1.7,4l-0.2,1.4
    l2.7,6.1l0.6,4.6l-0.9,0.8l-0.2,2.1l0.6,0.5l2.3,0.8l0.5,1.2l-0.1,1.9l0.3,0.6l1.2,0.2l0.4,0.5l0.4,1.6l-0.9,2.9l-0.9,0.9l-1.2,0.2
    l-0.9,0.7l-0.2,1.4l-4.1,3.6l-0.5,2l-4.6,3.5l0,0l-3.6-3.6l-1.9-2.5l-1.7,0.2l-0.3,0.6l-1.3-0.2l-10.6-3.2l-3.1-0.6h-4l-1.6-0.5
    l-2.1-1.1l-1.8-1.5l-1-0.3l0.6-0.6l-0.2-0.4h-1l0.2,0.4l-0.6,0.2l-1.1-1.7l-0.9-0.4l-26.6-9.5l0.1-0.6l-0.5-0.6l-2.5-1.8l-0.8-1
    l-6.2-2.6l0.2-0.8l-0.9-1.1l-0.8-0.6l-2.5-0.5l-0.1-0.5l-1-0.4l-0.8-1.9l-1.9-1.3l-1.4-2.4l-3.8-2.1l-2.2-0.7l-1.4,0.2l-0.7,0.8
    l-0.5-0.3l0,0l-0.8-1.3l0.1-3.9l0.8-0.6l2.6-0.8l0.9,0.2l1.5-0.6l0.8-0.8l1.6,0.4l0.8-0.3l0.2-0.3h-1.8l0.3-0.9l-0.1-1.2l-0.6-1.4
    l0.6-1.1l-0.6-1.2l0.1-0.3h0.6l-0.5-0.8l0.7-0.4l0.6,0.1l-0.2-0.5l0.6-0.1l0.5,0.8l0.5-0.8l-0.3-0.4l1.1-0.3l0.1,1l0.6-0.4l0.3,0.4
    l0.1-0.7l0.7-0.2h1.1l1.2,1.9l2,0.9l3.5-0.5l0.2-0.5l2-0.5h1.7l0.5,0.5l2,0.5l1.6-0.2l1.1,0.3l1.2,1.7l0.1,0.8l0.6,0.1l1.4-1.1
    l0.6,0.6l1.4,0.2l0.4,0.8l1.5,0.9l0.3-0.4l0.4,0.3l0.3,1.1h0.8l0.8-1l-2.8-3.8l-0.3-3.1l-1.2-4.2l0.5-1l1.1-0.9h0.4l0.6,1.6l2.4-2.9
    l0.9-0.5l1.1-2.5L418.1,379.5L418.1,379.5z M422.7,398.3l0.1,0.3l0.4-0.3H422.7z"/>
  <path
    id="MX-HID"
    title="Hidalgo"
    class="selectable-item"
    d="M465.2,317.2l0.8,0.2l0.3,0.8l-0.3,2.7l1.8,1.7l1.3,0.7l1.3,0.1l0.9-0.9l2,0.6l2.5,3.4l-1.9,2.5l-0.6,2.2
    l0.6,1.1l-0.3,0.6l-1.5,0.2l-1.3-1.4h-0.5l-2.4,2.2l-0.3,0.9l-0.6,0.5l-0.3,3.7l-0.6,1.3l-0.2,2.1l1.2,2.6l0.9,1.1l0.5-0.2l1.3-1.5
    l2.5-1.2l1.9-2.2l1.6-0.7l2.1-2.3l0.8-0.4l1.5,1l0,0l0.1,3l-2.9,2.5l-0.9,1.4l-3.6,1.9l0.7,1.4l2.1-0.5l0.5,2.2l-0.8,4.8l-1.5,3.1
    l0.7,4.7l0,0l-2.4-0.5l-0.8,1.5l-1.5,1.2l-2.1,0.3l-1-0.2l-5,1.7l0,0l-0.2-1.4l1.8-4.1l-0.2-1.7l-5.8,0.6l-1.7,2.6l-0.2,0.2
    l-0.6-0.3v-0.9l-0.9-1.8l0.2-0.5l0.9-0.5l0.9-0.1l1.1-4.3l-0.5-1.9l-0.6-0.1l-2.7,1.4l-3.9,1.1l-0.5,3.8l-0.7,0.8l-2.1-1l-0.2,2.2
    l-1.2,1l0.1-2.5l-0.4-1.3l-0.7-0.6l-0.3-1.2l-1.2-1.3l0.7-1l-1.5-3.1l-0.6-0.2l-0.1-0.6l-4.6-0.7l-2.6-1.5l-1.2-1.4l0,0l1-6.5
    l1.6-0.5l0.9-0.7l2.9-0.7l2.3-1.6l-0.6-2l1.1-2.6l1.2-0.4l0.8-1.2l0.5-2.2l0.8-1.6l-0.3-1.1l1.6-1.4l1.2,0.7l4.1-1.3l1.3-3.1l0,0
    l2.3-0.8l1.1,2.4l1.3,1.1h1.1l1.4-2.4l0.9,1.3l1.3-3l1.6-1.8L465.2,317.2z"/>
  <path
    id="MX-JAL"
    title="Jalisco"
    class="selectable-item"
    d="M359.1,309.8l2-1.1l4.2,0.4l1.7,1.4l2.2,1l1.3-0.1l3-1l0.7-0.5l2.5-3.5l4.3-2l-2-2.1l0.2-1.6l-0.3-0.6l0,0
    l3.5,0.9l2.1,1.1l2.7,2.4l2.1,0.8l0.3,0.4l0,0l-1.2,1.3l0.7,0.8l-1.2,1.4l0.1,0.7l-1.5,5.5l0.7,0.1l-0.6,2.2l0.8,0.5l-0.7,1.4
    l-0.4,0.4l-1.5,0.1l-0.5,0.7l0.1,0.6l-0.8,2.6l-2.5,1.9l-1.9,4l-1.8,1.5l-0.1,0.8l-2,2l0.5,1.3l1.6,0.4l1.6,2.9l-1.8,3.4l-0.4,2.8
    l0,0H374l-2.1,1l-1.7-0.2l-1.3,0.5l-1.7-0.1l-1.1,0.3l-2.1,1.6l-1.1-0.1l-1,1l-0.9,0.3l-0.3,1.4l-3,0.7l-0.2,0.8h-0.4l-1-1.3
    l-2.5-0.5l-0.3,1.1l-0.9-0.2l-0.4,0.3v2.4l-0.9,1.5l0.5,0.8h0.5l0.5-0.6l2.3,0.3l3.2,0.9l0.7,0.6l0.6,2.2l-0.3,0.8l-0.9,0.7l1.9,4.2
    l-0.6,2.6l3.4-0.1l0.6,0.7l0.1,1.6l-2.4,2.5l-0.9,2.3l-2.3-0.6l-1.4,0.7l-4,3.6l-2.2,1.2l-1.6,1.7l-0.3,0.1l-1.3-1.8l-0.5-0.1
    l-2.2,1.7l-1.5-0.3l-1.7,0.4l0,0v-2l-0.8-1.5l0.6-1.3l-0.1-3.1l0.5-1.8l-1.1-0.5l-0.2-0.8l-1-0.8l0.2-1l-0.5-2.9l-0.6-0.1l-2.5,2.4
    l-3.2,1.7l-1.4,0.2l-3.2-0.3l-3.1,2.3l-1.1,0.3l-1.3-0.4l-3.8,0.9l-0.5-0.4l-0.9,0.6l-0.5,0.8l-0.6,0.1l-1.1-0.5l-1.5,1.8h-1.9l0,0
    l-0.6-0.5l-0.6,0.1l-0.1-0.5l-0.7,0.3l-0.5-0.3l-0.9,0.1v-0.6l0.5-0.5l-0.1-0.5l-0.9-0.3l-0.2,0.4l-0.9,0.2l-2-1.1l-1.9-1.7l0.4-0.7
    l-0.4-0.7l-0.8-0.5l0.1-0.9l-0.5-0.2l-0.2-1.5l-0.8-0.7h-0.8v-0.4l-2.8-2.1l-0.3-0.7l-1.4-1.5l-0.4-1.1l-3.9-5.3l-1.1-2.3l0.2-2.2
    l-0.3-1.2l-0.7-0.2l-0.1-0.6l-2.2-2.3l-0.5-1.6l1-0.5l1-1.1l7.4-1.2l1.5-1.1l0.7-1.6l-0.3-1l-1.3-1.1l0,0l4.5-5.6l1.2-0.5l2.3,0.5
    l3.2-2.4l1.2-0.2l1.5,0.7l1.2,1.4l3.1,0.8l2.7,3l1.1,0.6l2.3,2.1l0.7,0.8l0.5,1.5l0.5,0.3v-1.5l-1.2-1.5l0.3-0.4l-0.7-0.8l-0.4-1.5
    l0.5-0.6l0.8-0.2l1.5-8.5l4-0.2l1-0.4l1-1l1.7-0.3l2.2-1.3l0.4-0.8l0.4-4.2l-0.2-1.5l-1.4-1.2l-1.7-4.3l-4.5-0.6l-0.9-1.6L325,304
    l-0.5-0.5l-1.1-0.1l-1.2-1.2l-1.6,0.5l-0.5-3l1.2-4.9l-0.2-0.5l0,0l1.1-1.2l1.4,0.3l0.4-3l3.1-1.2l0.5,0.4l-1,3.2l0.3,0.5l1.8-1.1
    l1-1.2l-0.2-1.4l-1.7-3.8l0.1-0.8l2.2-1.5l2.7-0.4l1.8,1l-0.2,0.9l-1.1,0.8l-1.5,1.9l-1.7,4.2v3.3l1.2,1.8l1.2,0.2l0.4-1.2v-7
    l0.6-0.6l3.4-0.7l1.4,0.5l1.4,1.3l0.6,1.9v1.2l-3.8,6.2l-0.1,0.5l0.6,0.7h1.9l0.7-0.8l1.3,0.2l0.7,0.5l0.9-0.4l0.9-1.7l2.4-1.9
    l-1.2-1l0.3-1.9l1.9-0.7l2.2,0.2l0.4,0.9l-0.8,1.5l0.5,0.4l2.1,0.1l0.5,0.4l-0.7,3.5l-1.2,2.9l-0.7,0.7l-1.3,0.2l-3.3,1.7l-1.8,1.7
    l-2.9,2.1l0.2,1.8l-0.3,2.5l-2.1,2.1l-1.8,0.5l0.9,2.5l0.9,0.5l1-0.5l0.7,0.1l0.3,0.6l-0.1,1l-1.2,1.1l-4,1.8l0.2,0.5l2.5,0.6
    l0.8,0.8l0.8,1.7l0.9,0.5l2.3-0.2l2.9,1.6l1-0.5l0.9,0.1l0.2-0.6l1.3-0.3l1.7,0.4l0.1-0.4l1.5-0.5l0.3-2l0.6-0.5l1.4-0.5l1.5,0.5
    l3.6-2.9l2.3-1.4l1-1.3l0.5-2.7l-2.8-1.8l-0.6-1.9L359.1,309.8z"/>
  <path
    id="MX-MIC"
    title="Michoacán"
    class="selectable-item"
    d="M376.9,345h0.9l0.3,0.5l0.5-0.1l0.6,0.5l-0.4,0.4l0.7,2.9l0.4,0.5l0.8,0.1l1.2-0.7l0.5,0.4l2.2-0.1l0.9,0.3
    l2-2.8l2.1-0.7l0.6,0.4l1.4-0.2l1.1,0.8l1.3,1.8l-0.6,0.3l-1-0.5l0.5,1.7v3.2l0.5,0.5l2.5,0.2l1.8,0.7l1.2-0.5l-0.3-0.8l0.7-0.6
    l1.4,0.4l2.2-0.6l0.5,2.3l-0.2,0.5l0.3,0.1l0.6-0.3l1.3,0.1l2.6,0.9l3.4,0.2l1.4-1l1.9-0.5l0.5,0.2l-0.3,1.5l0.6-0.2l0.5-1.4
    l0.7-0.8l2.1-0.3l1.2-1.1l0.1-1h-0.7l0.5-1.8l-0.1-1.3l-0.6-1.2l0.4-1.1l0,0l1.5,1l1.2,1.9l-0.2,0.8l3.3,3l0,0l-0.1,2.4l0.9,0.8v0.6
    l-1.3,1.7l-0.3,2l-0.3,0.5l-1.4,0.5l-1.5-0.1l1,2l0.6,0.5l0.4,5.2l-0.3,0.6l-0.7,0.1l-0.4,0.6l-0.8,1.8l0.3,1l-1.1,2.4l-1.5,1.8
    l-0.2,1.1l-0.6,0.4l0,0l-2.2,1.4l-1.1,2.5l-0.9,0.5l-2.4,2.9l-0.6-1.6h-0.4l-1.1,0.9l-0.5,1l1.2,4.2l0.3,3.1l2.8,3.8l-0.8,1h-0.8
    l-0.3-1.1l-0.4-0.3l-0.3,0.4l-1.5-0.8l-0.4-0.8l-1.4-0.2l-0.6-0.6l-1.4,1.1l-0.6-0.1l-0.1-0.8l-1.2-1.7l-1.1-0.3l-1.6,0.2l-2-0.5
    l-0.5-0.5h-1.7l-2,0.5l-0.2,0.5l-3.5,0.5l-2-0.9l-1.2-1.9h-1.1l-0.7,0.2l-0.1,0.7l-0.3-0.4l-0.6,0.4l-0.1-1.1l-1.1,0.3l0.3,0.4
    l-0.5,0.8l-0.5-0.8l-0.6,0.1l0.2,0.5l-0.6-0.1l-0.7,0.4l0.5,0.8h-0.6l-0.1,0.3l0.6,1.2l-0.6,1.1l0.6,1.4l0.1,1.2l-0.3,0.9h1.8
    l-0.2,0.3l-0.8,0.3l-1.6-0.4l-0.8,0.8l-1.5,0.6l-0.9-0.2l-2.6,0.8l-0.8,0.6l-0.1,3.9l0.8,1.3l0,0l0.2,0.8l-1.3,0.5l-3-1.5l-4-1.2
    l-7.9-1.7l-5.1-2.4l-3.8-0.7l-5-1.9l-0.5,0.2l-3.8-2.3l-1.8-4.1l-2.9-2.2l0.4-0.8l-1.6-1.9l0,0l0.7-1.7l1.9-1.2v-1.8l0.4-0.3l1,0.3
    l2.5-2.2l0,0l1.7-0.4l1.5,0.3l2.2-1.7l0.5,0.1l1.3,1.8l0.3-0.1l1.6-1.7l2.2-1.2l4-3.6l1.4-0.7l2.3,0.6l0.9-2.3l2.4-2.5l-0.1-1.6
    l-0.6-0.7l-3.4,0.1l0.6-2.6l-1.9-4.2l0.9-0.7l0.3-0.8l-0.6-2.2l-0.7-0.6l-3.2-0.9l-2.3-0.3l-0.5,0.6h-0.5l-0.5-0.8l0.9-1.5V352
    l0.4-0.3l0.9,0.2l0.3-1.1l2.5,0.5l1,1.3h0.4l0.2-0.8l3-0.7l0.3-1.4l0.9-0.3l1-1l1.1,0.1l2.1-1.6l1.1-0.3l1.7,0.1l1.3-0.5l1.7,0.2
    l2.1-1L376.9,345z"/>
  <path
    id="MX-MOR"
    title="Morelos"
    class="selectable-item"
    d="M448.2,379.5l1.3-0.2l1.3,1.2l1.3-1.1l0.6-0.1l0.9,0.8l2.4-0.8h1l0,0l1,0.8l0.9,1.6l2.5,0.9l2.6-2.1l0.9-0.2
    l0,0l-2.8,7.1l1.3,7.8l-0.5,0.7l-2.8-2.6l-0.5,0.1l-0.8,1.3l-1.2,0.6l-0.6,1l-2.8,1.9l0,0l-2.3-2.3l-5.5-0.7l-2-2.7l-1.1-0.5
    l-1.1,0.2l-0.4-0.4l0.6-1.1l-0.5-0.8l0,0l0.2-1l1.6-1.8l0.4-1.4L448.2,379.5z"/>
  <path
    id="MX-MEX"
    title="Estado de México"
    class="selectable-item"
    d="M423.2,398.3l-0.4,0.3l-0.1-0.3H423.2z M432,346.6l1.2,1.4l2.6,1.5l4.6,0.7l0.1,0.6l0.6,0.3l1.5,3.1l-0.7,1
    l1.2,1.2l0.3,1.2l0.7,0.6l0.4,1.3l-0.1,2.5l1.2-1l0.2-2.2l2.1,1l0.7-0.8l0.5-3.8l3.9-1.1l2.7-1.4l0.6,0.1l0.5,1.3l-1.1,4.3l-0.9,0.1
    l-0.9,0.5l-0.2,0.5l0.9,1.8v0.9l0.6,0.3l0.2-0.2l1.7-2.6l5.8-0.6l0.2,1.7l-1.8,4.1l0.2,1.4l0,0l1,1.8l0.8-0.2l0.5,0.6l0,0l0.4,1.8
    l-0.6,0.6v1.1l1,3.6l0.1,4.4l0,0l-0.9,0.2l-2.6,2.1l-2.5-0.9l-0.9-1.6l-1-0.8l0,0l-0.2-0.8l0.5-1.7l-0.4-1.6l-0.2-0.5l-0.5,0.4
    l-0.3-1.5l-2.1-1.8l-0.5-1.5l-1.6-1.9V367l-0.3-0.4l-2.2,2.5l-0.6,2l-3.2,2.8l0.1,1l2.6,4.4l0,0l-4,6.3l-0.5,1.4l-1.6,1.8l-0.2,1
    l0,0l-0.8-0.1l-0.8,0.5l-2-0.7l-0.9-1.1h-0.8l0.4,1.7l-1.8,0.3l-0.4,1.6l-0.9-0.3l-0.9,0.4l-0.3,0.6l-3.5,0.2l-0.8-0.4l-1,0.5
    l-0.4,0.6l0.7,1.4l-2.5,0.6l-2,2.2l-0.2-0.4l-0.3,0.4h-0.6v0.4l-1.6-2l-0.2-1.1l-1.5-0.3l-1.3,0.3l-0.6-0.7l1.7-1.8l0.2-0.7
    l-0.1-1.2l-1.8-0.8l-0.4-1.6l0.7-4.2l1-1.9l-0.3-2.9l0,0l0.6-0.4l0.2-1.1l1.5-1.8l1.1-2.4l-0.3-1l0.8-1.8l0.4-0.6l0.7-0.1l0.3-0.6
    l-0.4-5.2l-0.6-0.5l-1-2l1.5,0.1l1.4-0.5l0.3-0.5l0.3-2.1l1.3-1.7v-0.6l-0.9-0.8l0.1-2.4l0,0l2.5-0.3l1.9-2l-0.3-1.7l-0.5-1l0.2-0.3
    l0.9,0.6l0.6-0.1l-0.2-0.7l0.3-0.6L432,346.6L432,346.6z"/>
  <path
    id="MX-NAY"
    title="Nayarit"
    class="selectable-item"
    d="M272.6,319.2l0.2,0.8l-0.8,0.4l-0.5-0.7l0.4-0.5L272.6,319.2L272.6,319.2z M267.4,314.8l1.6,0.4l0.4,0.6
    l-0.5,0.4l-0.1,0.8l-2.3-0.9l-0.4-0.5L267.4,314.8L267.4,314.8z M262,309.5l2.6,0.7l0.4,0.4l-0.1,0.6l0.8,0.8l-0.2,0.9l-0.6,0.4
    l-2.3-1.3l-0.5-1.4L262,309.5L262,309.5z M261.6,307.4l0.4,1l-0.5,0.2l-0.2-0.8L261.6,307.4L261.6,307.4z M286.3,286l0.6,1.4
    l-0.2,1.4l0.5,0.5L287,290l0.9,6.4h-0.6l-0.2-0.4l-0.8-4.2l-2-4.5l0.3-0.2l1.1,1.8l0.8-0.2l-0.7-2.2L286.3,286L286.3,286z
     M293.5,273.3l2.2,2.6l1.7-0.4l0.9-1.3h0.5l1.5,1.8l1.3,0.6l2.1,0.2l0.6,2.5l0.5,0.4h1.1l0.1,1.2l-0.6,0.9l-1.7,0.9l-1.7,1.8
    l2.2,4.6h0.7l0.8-0.9l1.4-2.6l1.4,1.8l1.7,0.4l2.5,2.4l1,2.1l1.8,1.1h0.5l0.4-1.4l2.9-1.3l0,0l0.2,2.8l0.4,1l0.7,0.4l0,0l0.2,0.5
    l-1.2,4.9l0.5,3l1.7-0.5l1.2,1.1l1.1,0.1l0.5,0.5l0.1,2.7l0.9,1.6l4.5,0.6l1.7,4.3l1.4,1.2l0.2,1.5l-0.4,4.2l-0.4,0.8l-2.2,1.3
    l-1.7,0.3l-1,1l-1,0.4l-4,0.2l-1.5,8.5l-0.8,0.2l-0.5,0.6l0.4,1.5l0.7,0.8l-0.3,0.4l1.2,1.5v1.5l-0.5-0.3l-0.5-1.5l-0.7-0.8
    l-2.3-2.1l-1.1-0.5l-2.7-3l-3.1-0.8l-1.2-1.4l-1.5-0.7l-1.2,0.2l-3.2,2.4l-2.3-0.5l-1.2,0.5l-4.5,5.6l0,0l-1.2-1.8l-0.5-0.1
    l-0.9,0.7l-3-1l0.8-0.6l0.9-2.1l0.4,0.1l0.9-1.6l1.2-0.8l0.9-1.2l0.1-0.8l1,0.4l1.1-1.6l-0.3-1l0.5-3.1l-0.6-2.8l1.4-2.7l-0.2-1.2
    l-0.7-0.8l-0.9,0.3l-4.7-3.2l-1.4-3.6l-3-5.1l-0.7-2.7l0.2-3.2l0.8-0.4l0.5,1.2l0.6,0.1l0.3,0.8l2,1l0.3-1.5l-1-0.7l-0.2,0.2
    l-0.4-0.8l-1,0.3l-0.2-0.6l0.4-0.4l-0.1-0.6l-0.5-0.1l-0.3,0.4l-0.3-0.3l0.1-0.7l-0.5-1l-0.2-3.4l-0.3-0.6l0.2-0.9l-0.6-0.4l0.2-0.7
    l-0.6-2.1l0.3-0.2l0,0l2.1,1.2l3.5,0.6l0.4-0.9l-0.2-2l-0.4-0.4l-0.2-1.3l-1.3-1.3l-0.5-1.3l0.3-1l1.7-2.1l0.6-3.4L293.5,273.3
    L293.5,273.3z"/>
  <path
    id="MX-NEL"
    title="Nuevo León"
    class="selectable-item"
    d="M435.4,145.9l-0.6,0.3l-1.3,1.7l-2.8,0.8l-0.6,0.7l0.3,0.8l-0.4,1.1l0.6,0.4l4,0.2v0.9l-1.2,1.4l1.3,0.9
    l-0.2,2.5l0.2,1.4l1.1,1.1l0.4,3.2l-1.6,1.4l-0.8,2.4l0.1,1.1l1.5-0.1l1.2,0.7l0.5,0.8l-0.5,1.3l-0.2,3.2l0.8,0.8l0.9-0.4l0.7,0.4
    l0.8,1.9l1.9,0.2l1.2,4.1l1.8,2.5l1.4-0.1l-0.1,1l1.2,1.6l0.7,0.1l0.8-0.7l0.6,0.1l0.2,0.6l-0.4,0.7l0.8,1.3l-0.9,0.3l0.8,0.5
    l0.4,0.6l3.3,0.5l0.6,0.6l1.2,2.3l1,0.5l2.7-1.5l1.1,0.1l3.4-0.7l0.7,0.4l0.1,1.5l0.8,1l-0.3,3.4l0.6,1.5l-0.5,0.8l-0.2,2.1l0.7,1.6
    l-0.4,0.8l1,0.8l2,0.6l0.4,0.3v0.5l-1.5,1.6l-0.6,1.4l-1.2,0.6l-1.4,1.4l-0.8,0.1l-1,1.1l-4.4,0.9l-1,1.1l-0.8,2l-2.8-0.2l-0.6-1.2
    h-0.5l-1.5,2l-1.3,0.4l-0.2,0.4l0.6,2.2l0.7,0.4l-0.4,1.7l-0.9,0.1l-0.9,0.7l-0.5,1.6l-1.1,0.4l-0.4-1.5l-0.4,0.1l-0.4,1l-1.1,0.5
    l-1.1,1.6l-1.8-0.1l-1.3,2.1l-2.9,1.3l-2,1.4l-0.7,2.1l0.2,0.3l1.8-0.1l1.3,2.6l-0.9,6.8l1.8,2.1l1.4,3.6l1.4,0.8l0.8,2.3l-2.2-0.4
    l-0.4,0.1l-0.3,1.5l-1.8,1l-0.7,0.1l-2.5-0.7l-2.3,1.2l-0.7,2.8l-1.5,1.8l-0.3,1l0.4,2.8l-0.2,1.8l-3.1-0.4l-0.8,0.7l0.5,1.4
    l-0.4,0.8l0,0l-3.9-0.7l-2.3,2.8l-1.5-0.7l-1.2-1.5l-0.6-1.6l-0.2-4.1l-0.5-1.3l1.1-5.6l-0.1-0.9l-1-1.5l0.2-4.4l-0.9-2.2l-2.5-3.1
    l0.1-1.4l-1.8-1.7l-0.3-0.8l1.2-1.6v-0.3l-0.7-0.3l0.5-1.6l-1.4-0.5l-1,0.2l-1.7-2.3l0,0l0.5-0.4l0,0l1-3.3l-0.6-1.2l-0.1-1.4
    l-1.4-1.6l0.3-1.2l-0.3-0.8l0.2-0.4l2.4-0.1l0.2-0.4l-0.1-2.2l-0.9-2.9l1.7-3.2l1.8-0.6l-0.3-0.8l0.9-0.3l1.7,0.2l1.3,1.5l3.4,0.9
    h1.9l0.3-0.2l0.1-1.1l0.8-0.9l-0.4-0.9l-0.9-0.3l-0.5-0.8l-3.6-0.6l0.5-1.1l-3.3-1.9l-0.8-0.9l-0.6-3.4l-0.4-0.4l-2.1-0.1l-0.8-0.7
    l-1.1-0.1l-0.8-1.8l-0.2-2.5l1-2.9l-0.4-0.6l-0.9-0.1l-1.4-1.1l-1-3.1l-2.7-2l-4.5-4.8v-1.3l2.4-2.4l1-2.7l0.9-0.9l3.5-0.3l2.6-1.7
    h3.2l1.1-2.2l1-0.8l0.8-2.2l-0.4-5.1l-2-1.5l-0.6-0.1l-0.7,3.1l-0.6,0.1l-2.8-2.1l-0.2-3.3l1.8-3l1.2-1l1.2,0.4l2.1-0.9l2.2,0.1
    l0.6-0.5l-0.2-2.3l0.3-0.8l1.7-2.6l0.5-2.3l1.1-0.6l3.7-0.3l5.5,0.9l1.9-1.3l1-0.1l1.1-0.8l0.3-0.6l0,0l0.8-0.2l0.2,0.9l0.8,0.2
    L435.4,145.9z"/>
  <path
    id="MX-OAX"
    title="Oaxaca"
    class="selectable-item"
    d="M512.5,396.1l1.2-2.2l0.3-1l-0.5-0.7v-0.9l0.7-0.6l1.2,1.2l1,0.4l-0.6,1.3l0.6,2.7l0.6,0.9l2,1.5l1.3-0.4
    l1.4,0.8l1,1.9l1.4,0.1l-0.5,0.9l0.7,0.4l2.5-0.8l1.4,0.5l1.2-0.2l2,0.5l0.5,0.4l1,3.8l-0.2,1.2l-0.8,1.1l-1,2.6l-0.7,0.7l0.3,0.7
    l-0.2,1.2l2.2,4.4l2,0.6l1.3-0.6l2.9-0.2l3-2.1l3.7-0.9l1.2-1.1l0.4,0.1l1.4,0.8l-0.2,0.7l-1.5,0.7l-0.2,1.1l3.4,4.4l3.5,2.8v1
    l0.6,0.6l-0.3,1.4l28.6,1.8l0,0l-0.3,0.9v2l-0.8,1l-0.8,3.5l-2.9,2.6l-2.2,6.3l-0.1,0.9l1.2,2.9l-0.5,1.5l0.1,2.1l0,0v0.4l-2,0.9
    l-0.5-0.1l-0.5-0.4l-0.7,0.1l-0.8-0.9h-0.9l-0.9-1.5l-1.1,0.4v1h-0.7v0.6l1.1,1l4.4,0.3l3.1,2.3l0,0l-0.2,0.6l0,0l-4.7-2.1l-3-0.9
    l-7.7-1.1l-0.2-0.5l2.6-0.9l0.7-0.6l0.4-1.1L562,450l-1.3,0.9l-0.4,0.8h-1l-0.3,0.6l-0.5-0.1l-0.1-0.4l1.1-0.9l-1.1-0.9l0.2-0.6
    l-1.4-1l-1.7,0.4l-1.3,2.2H553l-0.9,0.8l0.2,0.9l-0.6,0.1l-0.4,0.8h6.4l1.8,0.2l0.1,0.3l-3.6,0.1l-4,0.7l-1.8-0.2l-0.2,0.6l-2,0.2
    l-0.5,0.5h-0.6l-0.2,1l-2,0.9l-0.3,0.5l0.2,0.8l-1.4,0.5l-0.2,0.5l-1.5-0.2l-0.1,0.6h-2l-0.1,0.5l-2,0.9l-2.4,0.3l-1.3,0.9l-3.8,1
    l-2.7,1.3v0.3l-1.5,0.4l0.2,0.3l-3,1.4l-4.5-0.3l-1.9,1h-1.6l-3.5-1.5l-4-0.6l-1.5-1l-2.4-0.8l-0.8-0.5l-0.3-0.8l-3.8-1.7l-3.3-0.6
    l-2,0.1l-2.6-0.7l-0.7,0.2l-2.6-0.4l-0.4,0.4l-2.4-0.4l-5.7-3.7l-5.4-2.9l-4.7-0.8l-3.8-1.4l0,0l4.6-3.5l0.5-2l4.1-3.6l0.2-1.4
    l0.9-0.7l1.2-0.2l0.9-0.9l0.9-2.9l-0.4-1.5l-0.4-0.5l-1.2-0.3l-0.3-0.6l0.1-1.9l-0.5-1.2l-2.3-0.8l-0.6-0.5l0.2-2.1l0.9-0.8
    l-0.6-4.6l-2.7-6.1l0.2-1.4l1.7-4l0,0l1.2-1.4l2.1-1.4l1.6-0.4h3.5l1.5-0.6l2.2,1.6l1.2,0.4l0.7-0.2l1.8-1.6L488,406l-2.3-1.6
    l-0.4-0.8l2-4.3l1.6-0.7l1.6-0.2l0.5,0.3l0.2,1l-0.1,0.5l-1.3,0.9l0.1,0.4l1.3,1l0.7,1.1l1.4,2.8l0.4,1.6l0.8,0.7l0.9-0.9l0.9-1.9
    l2.6-2.6l1.4-0.3l3.7,0.9l1.8-1.5l0.1-0.9l0.3,0.6l1.4-0.9l2.4-0.5l1.9-3.5L512.5,396.1z"/>
  <path
    id="MX-PUE"
    title="Puebla"
    class="selectable-item"
    d="M480.2,338.2l0.7-2.6l1-0.8l0.1-0.8l0.9-0.9l0.3-1l1.2,0.4l2-0.3v1.8l-1.2,0.8l0.2,0.3l0.9-0.2l0.8,0.6
    l-0.4,0.8l0.2,0.8l0.8,0.8l2.2,1.2l0.5,1.1l-1.5,2.5l-1.6-0.9l-1.2,0.8l0.1,4l0.5,2.4l0.7,0.5l2-0.2l0.9,1.8l0.6,0.2l1.6-1.4l1.2-2
    l0.8-0.7l7.1,2.5l0.1,0.5l-2.2,3l-1.7,4.3l-0.2,0.8l0.3,1l-0.3,1l-0.7,0.9l-1,2.6l-0.6,0.2l-0.2,0.7l1.4,3l-0.5,1.4l0.3,0.4l1.4,1
    l3.6,0.8l2.9,1.3l0.5,0.6l0.1,1.3l-0.2,0.7l-0.5,0.1l-4.8-0.2l-0.2,0.9l0.5,6.1l-0.1,0.5l-1.9,2.4v3l0.4,1.1l0.8,0.7l3.8,1.1
    l-0.2,0.8l1.9,3.1l1.4,0.1l1-1l1.4-0.8l2.6,0.8l1.8,2.2l0,0l-0.8,0.8l-1.9,3.5l-2.4,0.5l-1.4,0.9l-0.3-0.6l-0.1,0.9l-1.8,1.5
    l-3.7-0.9l-1.4,0.3l-2.6,2.6l-0.9,1.9l-0.9,0.9l-0.8-0.7l-0.4-1.6l-1.4-2.8l-0.7-1.1l-1.3-1l-0.1-0.4l1.3-0.9l0.1-0.5l-0.2-1
    l-0.5-0.3l-1.6,0.2l-1.6,0.7l-2,4.3l0.4,0.8l2.3,1.6l0.1,0.4l-1.8,1.6l-0.7,0.2l-1.2-0.4l-2.2-1.6l-1.5,0.6H477l-1.4,0.5l-2.1,1.4
    l-1.2,1.4l0,0l-1.6-0.8l-1.6-2l-1.5,0.1l-0.9,0.9l-0.5-0.3l-1.4,0.3l-0.1-1.1l-4.2-1.8l0.8-1l-0.2-0.8l-3,0.2l-1.2-2.2l-1.4-0.6
    l-1.4-1.2v-1.2l0,0l2.8-1.9l0.6-1l1.2-0.6l0.8-1.3l0.5-0.1l2.8,2.6l0.5-0.7l-1.3-7.8l2.8-7.1l0,0l-0.1-4.4l-1-3.6v-1.1l0.5-0.6
    l-0.4-1.8l0,0l0.7-0.3l1.2,0.4l3,2.3l1.3,1.4l0.5,1.4l1.2,1.3l4.1,2.2l0.9-0.1l3.1-2.7h0.6l1.5,1h0.8l1.2-0.8l1.4-2.3l0.8,0.3
    l2.7-0.5l0.8-0.5l0.3-1.1l-0.9-0.2l-0.7-0.6l-0.3-1.2l-1.2-1.2l-0.6-0.4l-1.5,0.5l-0.8-0.2l0.1-1.7l-4.1-3.4l-0.7-1.1l-0.5-0.1
    l-1.5,1.8l-0.6,0.2l-2.1-0.4l0,0l-0.7-4.7l1.5-3.1l0.8-4.8l-0.5-2.2l-2.1,0.5l-0.7-1.4l3.6-1.9l0.9-1.4l2.9-2.5L480.2,338.2z"/>
  <path
    id="MX-QUE"
    title="Querétaro"
    class="selectable-item"
    d="M452.5,320.3l-1.3,3.1l-4.1,1.3l-1.2-0.7l-1.6,1.4l0.3,1.1l-0.8,1.6l-0.5,2.2l-0.8,1.2l-1.2,0.4l-1.1,2.6l0.6,2
    l-2.3,1.6l-2.9,0.7l-0.9,0.7l-1.6,0.5l-1,6.5l0,0l-1.1,0.8l-0.4,0.7l0.2,0.7l-0.7,0.1l-0.9-0.6l-0.2,0.3l0.5,1l0.3,1.7l-1.9,2
    l-2.5,0.3l0,0l-3.3-3l0.2-0.8l-1.2-1.9l-1.5-1l0,0l-0.7-1.7l-2-1.4l-1.1-1.9v-2.7l-0.6-1.7l-1-0.7l-0.1-0.8l0.6-3.8l0.7-1.4l4.6-0.3
    l1.5-0.7l2.7,0.4l0.7-0.4l0.2-1.1l0.8,0.5l0.7-1.6l-0.1-1.5l2.2-3.3l1.5-0.6l1.7,1.8l1.1-0.2l0.6-1l1.5-0.7l0.7-1.4v-1.2l-2.5-0.6
    l1.1-1.9l0.1-2.1l-0.5-0.5l0,0l-0.6-0.6l1.5-0.4l-0.3-0.5l0.2-0.5h1.1l1.5,1l0.6,1.9l0.6,0.7l2.5,0.2l1.9-0.5l0.6,0.4l1.1-2.8
    l0.6-0.4l0.8,0.2l0.5-0.3l1,2.2l3.2,3.4l0.8,1.5L452.5,320.3z"/>
  <path
    id="MX-ROO"
    title="Quintana Roo"
    class="selectable-item"
    d="M760.8,339l-1.1,2.6l-1.1,1.5h-0.3l-2.6,3.4l-1.6,1l-0.7-1.7l0.1-1.9l2.3-3.8l0.7-0.4l0.7,0.8l0.3-0.3l0.5,0.3
    l1.5-0.4L760.8,339L760.8,339z M700.3,408.9l-0.2-2.5l2.4-2.8l0.6-1.3l-0.3-4.7l-0.5-1.4l0.6-1.7l-0.8-0.5l0.5-1.4l-0.2-0.7l-1-1.2
    l-0.2-1.3l0.8-5.1l-0.2-2.5l0.4-0.7l1.2-0.7l0.2-5.9l-3.4-4.7l-5.3-4.2l-1.3-1.8l0,0l0.9-2l0.3-1.5l-0.2-0.9l0.6-0.5l3.5-0.2
    l1.4-1.4l2.4-1h2.4l1.2-0.4l1.9-1.8l1.1,0.9l0.3-0.3l-0.3-0.7l1.9-1.6l1.8-1l5.5-2l0.5-0.5l0.8-2.4l0.5-0.4h1l0.9,1.7h0.4l-0.2-2.2
    l1.5-2.8l1.2-0.6l1.1,1l1.5-0.4l1.5,0.1l3.1-1.8l3.1-2.7l1.7-0.8l0.9-1.2l0.3-1.6l0.9-1.1l0.5-2.5l1.2-2l0.1-1l-1.3-3.2l0.5-3.2
    l0.9-0.9l0.1-0.8l-0.3-5.3l0,0l1.3,0.1v0.4l0.6,0.3l0.7-0.3l2.1,0.6l0.3,0.4l0.7-0.2l1.6,0.2l0.4,0.4l0.3-0.5l2.7-0.9l0.2-2L751,313
    l0.6-0.8l0.5-0.2l0.4,0.5l1.4,0.4l0.6,0.8l0.3-0.2l0.5,0.5v0.8l1.6,2.2l1,4l0.4-0.1l0.2-1.6l0.7-0.7l-0.1-0.9l-0.7-1.1l0.7,0.2
    l0.1,1.7l-0.6,1.6l0.4,1.2l-0.2,1.4l0.2,0.8l1.2,0.9l-0.7,2.5h-0.8l-0.3,0.7l-1.3,4l-1.2,1.1l-1.1,1.6v0.5l-1.2,0.7l-0.3,0.8
    l-1.9,2.2l-3.9,3l-1.7,2.4l-1,2.5l-1.5,1.7l-1.4,4v1.9l0.6,1.9l0.4,0.1l0.2,1.1l-0.6,1.4l-0.8,0.8l0.4-0.9h0.4l0.6-1.3l-0.1-0.6
    l-0.6-0.4l0.1,1.3l-1,1.8l-0.8,0.3l-0.3-0.4l-0.9,0.5l-1.6,2.7l-2.4,0.4l-0.2,1.9l1,0.7l0.2,0.6l0.7-0.3l-0.1,0.8l0.4,0.1l-0.2,0.7
    l0.6-0.1l0.9-1.3l1.6-0.3l0.6,0.6l0.8-0.8l-0.3-0.4l1.7-0.2l0.5,0.8L743,368l-2,1.9h-0.5l0.1-0.8l-2.5,1.5l-0.6,1.7v1.2l-0.7,0.8
    l0.4,0.1l-0.1,0.7h1.4l2-2.8l0.8-0.4l0.5,0.2l-0.3,1.4l0.3-1.1l1-0.1l-2.2,2.6l-0.3,3.2l-2,4.1l-1.1,4.8l-0.9,1l-0.8,4.8l-0.5,0.9v2
    l-1.4,2.3l-0.6,3.3l-0.7-0.5l-0.6,0.1v-0.7l0.6-0.4l-0.1-1l-0.4,0.1l0.4-1.5l-0.5-0.3l-0.2-0.6l-0.8-0.2l0.2-1l-2.6-0.8l-1-1.2
    l0.7-0.5l0.3-2l0.9-1.7l-0.5-0.5l0.4-1.2l-0.4-1.4l-0.7-0.6l0.2-0.9l-0.8-0.3l-2.3,3.6l-1.1,0.4v0.2l1-0.4l-3.2,5.9l-2.3,0.1
    l-0.2-0.3l-1.1,0.4l-1.2-0.3l-0.9,0.8l-0.9,3l-1.1,1.1l-0.5,2l-1.1,1.4l-1.2,2.9l-1.4,0.8l-0.6,1.4l-1.6,1.3l0.1,1.6l-0.9-1
    l-0.9-0.4l-0.6-1h-1l-1-1.2l-1.8,0.4L700.3,408.9L700.3,408.9z M751,312.4l-0.2,0.5l-2,1.2h-1.5l-0.6,0.4l-0.9-0.5l-0.5-0.8l1.7,0.6
    l1.4-0.1L751,312.4L751,312.4z"/>
  <path
    id="MX-SLP"
    title="San Luis Potosí"
    class="selectable-item"
    d="M407.2,232.6l1.7,2.3l1-0.2l1.4,0.5l-0.5,1.6l0.7,0.3v0.3l-1.2,1.6l0.3,0.8l1.8,1.7l-0.1,1.4l2.5,3.1l0.9,2.2
    l-0.2,4.4l1,1.5l0.1,0.9l-1.1,5.6l0.5,1.3l0.2,4.1l0.6,1.6l1.2,1.5l1.5,0.7l2.3-2.8l3.9,0.7l0,0l0.9,1.1l0.1,2.1l1,0.8l0.5,1.1
    l-0.3,3.6l0.2,3l0.2,0.7l1.1,0.9l4.2,1.4l3.3,0.3l2.2,0.7l0.6-0.4v-1l1-0.6l0.6,0.3l0.8,1.3l1.7,0.6l1.4,1.1l0.8,1.2l0.9,2.5
    l2.2,2.9l1.8-0.2l2,0.4l2.3-0.1l0.7-0.8l1.9,1.2l2.1-0.5l1,0.2l0,0l0.3,0.9l0.5,0.3h2.4l4.4,1.4l0.7,0.7l1.2,3.6h-2.5l-1.1,0.7
    l0.3,2.5l-0.3,0.7l-0.4,0.3l-2.2-0.3l-0.3,0.4l0.4,0.4h1.1l-0.6,0.5l0.4,0.3l-0.1,1.2l0.6,0.7l0.5-0.1v0.5l1.2,1.1l-1.8,0.7
    l-0.3,0.8l-1.1-0.1v0.7h-1.3l-0.2,0.9l0.9,3.3l1.3,0.2l0.1,3.3l0,0h-1.7l-1.6,1.8l-1.3,3l-0.9-1.3l-1.4,2.4H457l-1.3-1.1l-1.1-2.4
    l-2.3,0.8l0,0l-0.9-0.3l-0.8-1.5l-3.2-3.4l-1-2.2l-0.5,0.3l-0.8-0.2l-0.6,0.4l-1.1,2.8l-0.6-0.4l-1.9,0.5l-2.5-0.2l-0.6-0.7
    l-0.6-1.9l-1.5-1h-1.1l-0.2,0.5l0.3,0.5l-1.5,0.4l0.6,0.6l0,0l-2.6,1.3h-1.6l-0.7-0.8l-0.4,0.5l-1.8,0.2l-1.7-2.1l-0.5,0.1l-0.3-0.7
    l-3.1-2l-3.9-1.3l-1.1,0.7l-0.6,1.8l0.1,1.1l-1.5,0.6h-2.8l-2.7-1.4l-5-3.7h-1.1l-0.9-0.8l-4.6-1.1l-1.3-0.7l-2.9-0.3l-1.2-0.7l0,0
    l1.9-4l0.4-1l-0.3-0.2l0.1-0.5h0.4l0.4-1.6l-1.4-3.9l3.3-7.3l0.2-1.6l-2-2.6h-0.7l-1.5,0.7l-4.5,4.6l-2.4,0.7h-2.1l-1.5-2l-0.9-2
    l-1.1-0.6l-2.3-0.3l-1.1-1.3l-4.2-2.5l-0.9-1l-0.2-1.5l0.2-1.3l1.3-4l-1-3l0.5-1.7l-0.6-0.8l0.9-1.7l0.7-0.2l2.3,0.9l2.9-0.6
    l0.5-1.4l0.9-1l2.3-0.8l3.6-2.1l3.5-5.1l4.7-1.6l1.1-1.5l1.2-3l-1-1.2l0.8-3.4l0.6-0.6l1.9-0.5l1.4-0.9l0.9-1.8l0.2-1.5l0.7-0.5
    l1.6,0.1l1-0.5l0.7-1.7l1.2-1l0.4-1.8L407.2,232.6z"/>
  <path
    id="MX-SIN"
    title="Sinaloa"
    class="selectable-item"
    d="M286,284l0.4,0.1l0.5,0.9l-0.5,0.7L286,284z M224.9,218.6l1.2,1.4l0.5-0.2l0.3,0.3v0.9l0.6,1.1l-0.3,2.7h-0.5
    l-0.7-2.1l-1.1-1.2V218.6L224.9,218.6z M220,216.5l1.4,0.9l3.6,4.6l0.7,1.1v1.4l-0.4,0.2l-2.7-5.1l-2.8-2.6L220,216.5L220,216.5z
     M219.5,214.2l1.8,1.2l0.2,0.6l-1.7-0.8L219.5,214.2L219.5,214.2z M197.9,183.4l1,0.1l0,0l0.5,0.4l-0.1,1l-0.4,0.3l1.8,1.5l-0.4-1.1
    l0.8-0.6l-0.2-0.5l-0.3,0.3l-0.5-0.2l-0.9-1.8v-0.7l0,0l-0.1-1.6l0.3-0.2l0.2,1.9l0.4,0.2l0.5-0.9l0.8,0.9l0.1,0.8l0.5-0.1l-0.1,0.8
    l0.3,0.4l2.9-1.7l1.3-1.2l2-0.6l0.1-2.5l0.5-0.9l4.1-1l2.1-3.9l1.9-0.6l-0.3-2.5l3.1-3.9l0.3-1.8l0,0l4.9-0.2l0.7,0.4l0.1,2.9
    l0.6,0.2l1.2-0.3l1,2.3l-0.4,2.3l0.5,0.8l-0.5,2l0.3,1.1l1.4,0.9l0.1,1.9l3.1,5l1.2,4.7l3.8,1.1l3.2,0.3l2.4,0.7l2.9,4.9l0.6,3.2
    l2.1,2.8l0,0l0.1,0.7l0.7-0.2l0.2,0.7l-1.2,0.8l-1.7,2.2l0.6,0.7l0.5-0.1l0.1,0.7l-1.3,3.2l-0.1,5.1l-0.5,2l1,0.6l0.5,1.8l0.8,0.6
    l1.2,2.4l-0.3,1.4l1.2,0.9l0.5-0.4l2.3,0.2l0.9,2.6l1.3,0.3l1.2,4.5l0.6,0.2l0.6-0.4l0.2,0.2l0.8,4.1l1,1.4l0.6,1.9l0.8-0.2l0.7,0.5
    l0.7-0.6l1.3-0.2l2.8-2.1l0.7-1l4,1.2l1.5,1l0.9,1.4l1.1,0.3l0.1,1.1l1.7,2.3l0.1,2.2l1,0.9l-0.2,0.9l0.8,2.6l0.7,1.1l0.6,2.9
    l1.1,1.2l0.9,2l1.7,1.6l0.4,2.8l1,2.9l-0.3,0.9l0.7,1.7l1.2,1.3l0.1,2.3l0.6,1.3l2,0.1l0.9-0.6l0.6,0.1l2.1,2.2l0,0l-0.8,0.6
    l-0.6,3.4l-1.7,2.1l-0.3,1l0.5,1.3l1.3,1.3l0.2,1.3l0.4,0.4l0.2,2l-0.4,0.9l-3.5-0.6l-2.1-1.2l0,0l0.2-1l-1.5-1.6l0.2-0.6l0.7-0.4
    l-0.7-0.6l-0.5,0.7l0.5,1.9l0.5,0.5l-0.6,1.7l0.5,1.7l-0.4,0.6l-3.7-5.8l-3-2.9l-1.8-1.1l-4.2-5.2l-4.7-4.6l0.4-0.3l1.1,1.3l0.1-0.3
    l-1.5-1.1l-0.5,0.2l-0.2,0.6l-0.4-0.3l0.1-0.7l-0.7-0.5l-0.9-1.6l0.3-0.4l-1.2-2l-2.5-2.5l0.1-0.4l-1.4-1.2l-0.6-1.1l-2.6-1.9
    l0.4-0.5l-2.2-3.4l-0.2-1.2l-7.5-7l0.9,0.2l0.3-0.4l-0.5-0.3l0.1-0.8l-0.6-0.1l-0.2,0.5l-0.5,0.2l-3.8-3l-1.4-0.3l-5-4l-4.6-2.9
    l0.2-0.6l0.6,0.7l3.1,1.7l0.5,0.7l1,0.1l0.5,0.8l0.6-0.1l0.8,1.1l0.5-0.1l-0.5-0.6l0.1-0.7l0.7-0.2v-0.4l-0.3-1.2l-1.5-2h-1.3
    l0.1,1.4l-1.1,0.2l-1.1-1.4l-0.6,0.5l-1-0.2l-0.2-0.9l-1.6-1.5l-2.1-0.9l-0.2-0.5l-0.6,0.4l-1.1-0.5l-0.8-1.1l0.1-1.1l-1.4-1.6
    l0.6-0.3l1.2,1.2l0.7-1.2l-0.6-0.4L228,224h-0.3l0.1-0.9l0.5-0.5l-0.7-0.3v-0.5l0.5-0.6l0.1-0.8l-1-0.7l-0.3-1.9l-0.5-0.7l-1.5-1
    v0.5l-0.9-0.2l-1.9-1.7l-0.3-0.8h-1.6l0.1-1.1l-1.2-0.6l-0.6,0.8l0.3,0.6l-0.4,0.6l-1.9-2.1l-5.4-2.7l0.5-0.6l-0.4-0.5l-1.3,0.4
    l-1.5-2.3l0.7-1.3l-0.4-0.6l-1.2,0.4l-0.4-1l-1.3-0.1l-0.4,0.2l0.2,0.6l-0.2,0.7l0.5,0.3l-0.7,1.1l-0.5,0.2l-0.1-0.6l-0.4-0.1
    l0.2-0.4l-0.8-0.3l-1.2,0.2l0.3,0.8l-0.8,0.2l-1.8-2.1l1.2-0.2l0.4-0.4l0.1-0.8l0.9,0.9l0.9-0.4l0.2-1l0.7,0.1l0.5-0.5l-0.3-1.3
    h-1.1l-1,0.6l-0.9,1.8l-1.6-0.5l-0.2,0.5l-0.6-0.1l-0.4-1.1l-1.7-1.6l-0.5,0.4l1.6,1.2l0.1,0.8l-1.6-1l-2.9-0.5l-0.2-0.3l2,0.3
    l0.1-2h-0.5l-1.6-1.3l-1.1,0.3l-0.4-0.7l0.2-2.7l0.2-0.1l-0.4-1.1l-0.4-0.2V193l0.7-2.1h0.4v-0.8l2.1-3.4l0.7-2.4l1-1.1l0.2,0.1
    l-0.2,1l-0.9,0.3l-0.6,2.7l0.4,0.6l0.3-0.2l0.4-1l-0.3-0.6l0.2-0.3l0.3,0.5l0.8-1.7L197.9,183.4L197.9,183.4z"/>
  <path
    id="MX-SON"
    title="Sonora"
    class="selectable-item"
    d="M198.9,183.6l-1-0.1l0,0l0.1-0.5h0.5L198.9,183.6z M197.2,182.9l0.1-1.5l0.2,1L197.2,182.9L197.2,182.9z
     M163.2,154.3l0.6,0.9l-0.2,0.3l1.3,0.6l-0.3,0.4l-1.5-0.9L163.2,154.3L163.2,154.3z M121.1,101.5l0.5,1.6l-0.3,1.1l1,1.2l1,2.6
    l-0.4,0.4l-0.1,1.4l-1.5,4l-0.1,1l-0.7,0.6l-0.5-0.5l-0.8,0.1l-1.2-1.1l-1.3-0.1l-0.3-0.6h-0.5l-0.1-0.4l-2-1.1l1.7-1.2l0.6-0.9
    l-0.4-3.2l0.7-3l0.6-0.9l1.3,0.2l1-0.9L121.1,101.5L121.1,101.5z M62.2,28.6l0.8,0.1l-0.1,0.6l-1.5-0.4v-0.4L62.2,28.6L62.2,28.6z
     M58.5,26.8l1,0.5l0.7,1.4l1.3,1l0.5,1.1l-0.3,0.7l-0.8-0.6L60.2,31l-1-0.5l-0.9-0.9l-0.4-1l0.2-1.4C58.1,27,58.5,26.8,58.5,26.8z
     M209,41l1.1,1l-0.9,1.3l0.5,1.9l1.6,2.8l0.2,1.6l-0.5,1.3v1.8l-1.6,0.1v0.6l2.7,2.7l0.1,2.4l1,0.9l-0.6,1.6l0.1,0.8l1.1,1.5
    l-0.1,1.2l1.9,6.2l-0.3,1.8l-0.7,0.5l0.2,1l1.4,1.3v1.1l-1.3,2.6l-0.6,4.9l0.3,1h0.6l0.8,1l0.7,6.2v2.6l-0.8,0.9l-0.2,0.9l0.2,5.7
    l-0.3,0.5l-1.4,0.7l-0.1,2.7l-1.5,1.3l0.5,2.5l-0.9,1.3l0.8,2.7l-1.5,2.6l-0.2,1l0.8,1.9l-0.4,2.9l1.6,1.8l2.2,0.9l-0.6,1.2
    l-0.9,0.1l-1,1.2l-1.1,0.1l-1.4,1.1H210l-1.8-1.3l-0.8-0.1l-1.4,0.9l-2.5,0.5l-1,1.4l0.2,0.6l1.6,1.1l-0.6,2.8l0.4,0.7l1.8,0.7
    l2.1,3l0.4,1.7l-0.7,2.4l0.5,0.6l2.8,1.7l0.6,2.1l1,1.4l1.6,4.1v1.7l-1.2,3.1l0.5,3.4l-0.7,0.4v0.5l3.5,1.8l2-0.6l1.8,0.4l0,0
    l-0.3,1.8l-3.1,3.9l0.3,2.5l-1.9,0.6l-2.1,3.9l-4.1,1l-0.5,0.9l-0.1,2.5l-2,0.6l-1.3,1.2l-2.9,1.7l-0.3-0.4l0.1-0.8l-0.5,0.1
    l-0.1-0.8l-0.8-0.9l-0.5,0.9l-0.4-0.2l-0.2-1.9l-0.3,0.2l0.1,1.6l0,0h-0.4l-0.2,0.5l-1.3-1.7l0.1-1l-1.4-2.4l-2.3-2.6l-1.4-1
    l-0.9-0.1l1.1,0.2l0.1-0.4l-0.4-0.9h-0.6l-0.4-0.8l-0.6,0.1l-0.1-0.6l-0.4-0.1l-0.7,1.1l0.4,0.8l-2.7-0.1l-0.5,0.6l-2.5-1l-1.2-1
    l-0.9-1.3v-1l-1-2.8l-1.4-1.9l0.2-0.1l1,1.4l0.2-0.9l-0.6-0.4l0.2-0.4l-0.3-1.6l-1.7-1.4l-0.3,0.4l-0.4-0.4l-1.1,1l-1-0.7l-5-1.2
    l-3.1-3l-1.4-0.7l0.3-0.2l-0.4-0.9l0.1-1.3l-0.6-0.4l-0.5,0.4l-0.7-0.5l-0.1-1.3l-0.4-0.1l-0.4-0.8l0.2-2.1l-0.6-1.2l0.2-0.4
    l-0.8-0.8l0.1-0.8l1.4-1l-0.8-0.1l-0.2,0.8l0.2-1.5l0.7-0.4l-0.7-0.1l-0.3-1.1l0.5-0.4l-0.1-0.8l0.4-0.8l0.9,0.2l0.3-0.5l-1-0.8
    l-0.8-0.2l-0.5,0.5l-0.6-0.5l-3.9-0.9l-0.3-0.8l-1.6,0.9l0.6,0.9l-0.2,1.1l-1.2-0.4l-1-1l0.4-0.6l-0.6-0.1V138l-1.3-0.3l-1.3,0.8
    l-1.5-1.4l-1-0.3l-0.9-1.3l-1-0.3l-0.7-0.8l-0.2-0.9l-1.1-1.2l-0.1-0.9l-0.7-0.9l-0.4,0.1l-0.5-1.6h-0.4l-1.2-1.1l-0.1-1.4l-0.9-0.8
    l-5.4-2l-0.2-1.1l-1.2-2.6l-4-3.7l-0.5-1.2l0.6-0.1l0.5-0.6l0.5,1.2l0.6-0.4v-0.8l-0.6-0.5l-0.5,0.4l-0.5-0.7l-0.3,0.2l-1.3-1
    l-1.2-0.3l-0.4-1.1l-1-0.8l-0.3-0.7l-1.9-0.6l0.6-0.7l-0.4-0.8l-0.1-1.3l-0.4-0.5l0.5-1l-0.5-1.1l-0.4-0.1l-0.1-0.6l-0.7-0.1
    l0.5-1.8l-0.6-1.8l-0.6-0.6h-1.3l-0.8,0.4l-1.7-0.9l-0.2-1.1l1-2.8l-0.3-0.6l-1-0.5l-0.2-1.2l-1-0.8l-1.7-2.8l-0.9-0.7L113,86
    l-1.1-1.6l-0.3-1.6l-1.2-0.6l-0.6,0.2l-0.2-0.3l0.4-2.5l-0.6-1.5l0.1-3.5l-0.5-1.4l-1.9-1.9l-0.1-3.1l-1-2l-2.4-2.1l-2.5-4.7
    l-0.9-3.4l0.7-2.3l0.1-3l0.3,0.1l0.7-1l0.1-1.1l-0.5-2.8l-0.3,0.1l-0.2-0.8h-0.5l-2.3-1.4l-0.7-1.1l-0.8,0.7l-3.9-0.9l-0.2-0.3
    l-0.3,0.2l-2.6-0.5l-0.1-0.5l-0.6-0.3l-1.3-0.2l0.2-1.5l-0.6-1.6l0.1-0.8L87,36.1l-1.2-1l-4.3-1.8l-0.1-0.6L81,32.8l-0.2-0.5
    l-0.4,0.6l-0.8-0.5L79,33.1l-0.2,0.6l0.3-0.1l0.2,0.5l-0.7,1L77.9,35l-0.4,1.2l-2.8-0.1l-3.1-1.4l-1.4-1.5l-2.9-1.6L66.9,31h-1.2
    l-2.4-2.3l-2.2-0.1L59.8,28l-1-1.2H58l0,0L54.3,24l-0.9-0.1l-1-1l0.6-1l-0.2-1l0.4-2.7l-0.3-1.1l0.6-1.8l-1.4-2l1.8-2.4L54,9.6
    l0.5-0.5L55,7h1.3l0.5,0.4l0.8-0.5l0,0l93.6,34.2C151.3,41.1,209,41,209,41z"/>
  <path
    id="MX-TAB"
    title="Tabasco"
    class="selectable-item"
    d="M589,397.2l-4.1,1.5l-0.4,0.6l-1.9,0.2L589,397.2z M617.1,390.3l1.1,3.7l0.6,0.9l1.4,1h1l0.7,1.1l0.5-0.1
    l0.1-0.4l0.4,0.2l1.1,1.4l-0.2,2l0.5,0.3l1.1,2.6l1.2,1.8l3.5,2.3l0.9,1.4l1.3,0.7l1.5-0.1l2.2,1.1l1.3-0.6l1.7-0.1l0.3-0.7L639,407
    l0.3-1.3l2.8-0.1l3.7,0.8l1.6,1.5l1.6,0.7l0.8,0.9l0.7-0.4l4,1.6v1.6l0,0l-0.2,14.5l-10.6,0.2l0,0l0.5-1l0.8-0.3l-1.1-1.8l-1.3-0.4
    l-0.2-0.8l-4.3-1.2l0.8-2.7l-1.3-3.3l-2.6-1.3v-2l-1.1-1.4l-1.2,0.3l-1.2-0.2l-0.6,0.4l-0.6-0.3l0.1-0.6l-1.5-0.4l-0.7,1.8h-2
    l-1.8-0.5v0.4l-0.4-0.1l-0.1,0.4l0.4,1.8l-0.4,0.8l-3.3,1.2l-0.6,0.8l-5.8,4.3l-2.4,2.2l-1.9,0.8l-0.8-0.3l-0.7-0.9V422l-1.2-1.9
    l-0.5-0.2l-0.4,0.4l-1.2,0.1l-0.4-0.3l0.3-1.9l-2.1-2.2l-0.4-0.9l0.1-0.6l1.4-2.1l0.3-1.7l-2.8,0.1l-0.8-0.4l-1.4-1.7l-2.1-0.9
    l-0.5,0.6l-1.7,0.3l-0.8,7.1l-0.6,1.2l-1.2,0.8l-1.4,1.9l-0.1,1.6l-2.5,3.2l0,0l-1.9-0.8l-0.4-2.2l0.4-1l-0.2-1.2l-1.1-3.1l-0.4-0.5
    l-2.5-1l-0.4-0.6h-1.2l-1.4-2l-1.4-0.4l-1.1-1v-3l-0.6-1.5l-0.1-2.8l-0.5-0.4l0.9-0.9l0.9,0.5l0.2-0.3l-2.3-0.4l1.9-0.9l0,0l4.5-1.5
    l0.1,1.2l2.7-0.5l0.6-0.4l-0.3-1l0.7-0.4l1-0.1l0.2,0.4l0.8,0.1l1.3-0.2l0.6-0.6l-0.1-1.2l3.3-0.8l0.2,0.7l0.8-0.9l5.4-0.2l0.9,0.4
    l-0.7,0.6l0.1,0.9h0.8l0.8-0.4l0.1,0.3h0.7l0.4-0.6l-1.8-0.8l1.1-0.5l2.9,0.3l2.2-0.3l3-1.6l2.3-2.8L617.1,390.3L617.1,390.3z"/>
  <path
    id="MX-TAM"
    title="Tamaulipas"
    class="selectable-item"
    d="M485.7,239.8l-0.2,4.5l-0.3,0.1L485.7,239.8z M492.5,213.4l0.5,0.2l-2.8,7l-0.3-1.4l0.2-0.9l0.6-0.5l0.1-1
    L492.5,213.4L492.5,213.4z M483.8,294.7l-2,1.4l-1.5-1.6l-0.4-1.1l-1.2-1l-1.4-0.2l-1.6-1.2l-1.1-0.4l-0.7-1.3l-2.5,0.3l-0.4,0.7
    l0.2,0.7l-2,0.4l-0.1-0.6l-0.4,0.2l-0.7-0.6l-1.1-0.2l-4.2,0.2l-1.8,1l0,0l-1-0.2l-2.1,0.4l-1.9-1.2l-0.7,0.8l-2.3,0.1l-2-0.4
    l-1.8,0.2l-2.1-2.9l-0.9-2.5l-0.8-1.2l-1.4-1.1l-1.7-0.6l-0.8-1.3l-0.6-0.3l-1,0.6v1l-0.6,0.4l-2.2-0.7l-3.3-0.3l-4.2-1.4l-1.1-0.9
    l-0.2-0.7l-0.2-3l0.3-3.6l-0.5-1.1l-1-0.8l-0.1-2l-0.9-1.1l0,0l0.4-0.8l-0.5-1.4l0.8-0.7l3.1,0.4l0.2-1.8l-0.4-2.8l0.3-1l1.5-1.8
    l0.7-2.8l2.3-1.2l2.5,0.7l0.7-0.1l1.8-1l0.3-1.5l0.4-0.1l2.2,0.4l-0.8-2.3l-1.4-0.8l-1.4-3.6l-1.8-2.1l0.9-6.8l-1.3-2.6l-1.8,0.1
    l-0.2-0.3l0.7-2.1l2-1.4l2.9-1.3l1.3-2.1l1.8,0.1l1.1-1.6l1.1-0.5l0.4-1l0.4-0.1l0.4,1.5l1.1-0.4l0.5-1.6l0.9-0.7l0.9-0.1l0.4-1.7
    l-0.7-0.4l-0.6-2.2l0.2-0.4l1.3-0.4l1.5-2h0.5l0.6,1.2l2.8,0.2l0.8-2l1-1.1l4.4-0.9l1-1.1l0.8-0.1l1.4-1.4l1.2-0.6l0.6-1.4l1.5-1.6
    V206l-0.4-0.3l-2-0.6l-1-0.8l0.4-0.8l-0.7-1.6l0.2-2.1l0.5-0.8l-0.6-1.5l0.3-3.3l-0.8-1l-0.1-1.5l-0.7-0.4l-3.4,0.7l-1.1-0.1
    l-2.7,1.5l-1-0.5l-1.2-2.3l-0.6-0.6l-3.3-0.5l-0.4-0.7l-0.8-0.5l0.9-0.3l-0.8-1.3l0.4-0.7l-0.2-0.6l-0.6-0.1L448,186l-0.7-0.1
    l-1.2-1.6l0.1-1l-1.4,0.1l-1.8-2.5l-1.2-4.1l-1.9-0.2l-0.9-1.9l-0.7-0.4l-0.9,0.4l-0.8-0.8l0.2-3.2l0.5-1.3l-0.5-0.8l-1.3-0.7
    L434,168l-0.1-1.1l0.8-2.4l1.6-1.4l-0.4-3.2l-1.1-1.1l-0.2-1.4l0.2-2.5l-1.3-0.9l1.2-1.4v-0.9l-4-0.2l-0.6-0.4l0.4-1.1l-0.3-0.8
    l0.6-0.7l2.8-0.8l1.3-1.7l0.6-0.3l0,0l0.2,0.3h1.3l0.1,0.7l0.7,0.2l0.2-0.4h0.8l0.7,1.1l0.3-0.3l0.4,0.2l0.7,1.2l-0.4,1.7h0.8
    l0.4,0.5l-0.3,2.9l-1,2l1,0.1l-0.1,0.9l0.3,0.3l0.7-0.2l0.4,0.6l0.4,1.9l-0.4,2l0.3,0.5l-0.5,0.7l0.2,1.2l0.8,0.2l0.8,1.2l-0.3,0.4
    l0.5,0.7l1.1,0.3l0.4,1.5l0.8,0.3l1,2.1l-0.1,0.8l0.9,1.1l0.5,2.4l0.4,0.2l0.1,2.4l1.2,0.6l0.7,1.2l-0.5,1.3l1,1l0.8-0.4l0.8,0.6
    l0.9-0.2l0.5,0.1v0.6l0.8-0.1l0.7,0.6l0.4-0.3h1.9l0.3,0.9l1.3,0.3l1.5,2l2.4-0.1v0.6l0.3-0.1l0.2,0.4l0.5-0.5l0.9,0.5v0.4l1.6-0.4
    v0.7l1.4,1.2l1.3-0.1v0.8l0.8,0.8l1.5,0.9l0.8,0.1l0.4,0.4l0.5-0.5l0.7,0.6l1.7-0.5l0.4,0.7h0.7l0.1-0.5l1.3-0.2l0.4,0.4l2.6-0.3
    l0.7,0.4l0.7-0.4l0.4,0.2l-0.2,0.5l0.8,0.2h2.9l1.1,1.9l0.5-0.1l0.5,1l0.4-0.3l0.7,1.4l1.9,0.6l-0.2,0.3l0.6,0.4l1.5-0.3l-0.1-1.7
    l0.7-0.6l0.5,0.3l0.2-0.4h0.9l0.1-0.5l1.6-0.3l1.4-0.1l0.3,0.3l-0.3,4.9l-1,3.8l-5.7,11.1l-0.8-0.2l1.8-3.1l-0.7-0.6l0.5-0.6
    l-0.4-0.6l-1.1,0.1l0.2-0.6l-1.5-0.2l-0.6-0.8l-1,1.1l0.7-0.1l0.7,1.1l0.2-0.2l0.3,1.1l-0.3,0.2l-0.2-0.5l-0.6,0.2l-0.4,0.8l0.3,0.2
    l0.3,1.2l-0.8,0.3l-0.3-1.4l-0.8,0.6l-0.4-0.6v-1.1l-1.8-0.2l0.1,0.4l-0.9,0.8l0.5,0.8l-0.3,0.9l-0.5,0.1l-0.9-0.6l-0.2,0.6l0.6,0.1
    l0.7,0.9l0.3-0.2l0.6,0.3l-0.2,0.8l0.9,0.7l-0.8,1.1l0.1,1.3l-1.3,2.9l0.4,0.4h0.7l0.4,0.7l0.9,0.2l-1.5,1.1l-0.2,1l-0.4,0.1v0.7
    l0.6,0.4l0.1,0.8l-0.5,3l0.4,0.1l0.3,0.8l-0.9,4.2h-0.5l-0.3-0.5l0.1-1.4l-1,0.3l-0.9-0.6l0.2,0.9l-0.7,0.4l0.4,0.6l-0.3,1l0.9,2.2
    l0.4,0.2l-0.2,0.7l0.6-0.1l0.1-1.6l0.8-0.7l0.2,3.2l-0.7,6.4l-0.3,0.5l-0.2-0.1l0.3-0.6l-0.6-0.1v0.5l0.9,0.4v7.1l0.9,0.5v0.4
    l-0.4,0.3L485,256l0.2,0.7l0.3,0.1l0.1-2h-0.2l-0.1-0.7l0.5-0.3l-0.9,9.6l0.3,11L485,278l-0.5,0.6l-0.4,1.9l-1.2,1.5l-1,2.1
    l-0.2,1.2l1,0.7v2.8h-0.4v1l0.6,2l0.5-0.1l1.2,2.7L483.8,294.7L483.8,294.7z"/>
  <path
    id="MX-TLA"
    title="Tlaxcala"
    class="selectable-item"
    d="M474.5,362.7l2.1,0.4l0.6-0.2l1.5-1.8l0.5,0.1l0.7,1.1l4.1,3.4l-0.1,1.7l0.8,0.2l1.5-0.5l0.6,0.4l1.2,1.2
    l0.3,1.2l0.7,0.6l0.9,0.2l-0.3,1.1l-0.8,0.5l-2.7,0.5l-0.8-0.3l-1.4,2.3l-1.2,0.8h-0.8l-1.5-1h-0.6l-3.1,2.7l-0.9,0.1l-4.1-2.2
    l-1.2-1.3l-0.5-1.4l-1.3-1.4l-3-2.3l-1.2-0.4l-0.7,0.3l0,0l-0.5-0.6l-0.8,0.2l-1-1.8l0,0l5-1.7l1,0.2l2.1-0.3l1.5-1.2l0.8-1.5
    L474.5,362.7z"/>
  <path
    id="MX-VER"
    title="Veracruz"
    class="selectable-item"
    d="M493.6,315.3l-0.7,2l-0.8,1l-0.1-1.5L493.6,315.3z M486.2,304.8l1.7,3.6l-0.5-0.1l-1-1.6L486.2,304.8
    L486.2,304.8z M488.2,305.8l1.9,2.4l5.3,4.9l-0.7,3.1l-1.7,4.1l-0.5,0.5l-0.2-2.1l1.8-3.4L494,314l-1.8-1.6l-1.3-2l-2.8-3.1
    l-1.5-3.7l-0.5,0.1l0.1-0.8L488.2,305.8L488.2,305.8z M460.8,291.4l1.8-1l4.2-0.2l1.1,0.2l0.7,0.6l0.4-0.2l0.1,0.6l2-0.4l-0.2-0.7
    l0.4-0.7l2.5-0.3l0.7,1.3l1.1,0.4l1.6,1.2l1.4,0.2l1.2,1l0.4,1.1l1.5,1.6l2-1.4l0,0l0.6,5.4l1.7,4.5l-0.1,1l-0.4,0.2l0.6,1.4
    l0.4,3.3l0.8,0.9l0.1,1.1l1.8,3.3l1.5-0.3l0.5,0.8l-0.4,1.3l0.5,1.7l1,0.8l0.1,1.1l0.5,0.2l0.7,2.9l4.7,9.9l0.6,2.9l0.8,1.4l4.2,4.1
    l0.7,1.2l5.9,6.4l3.5,4.4l0.6,1.4l2.6,2.9l1.2,3.3l0.1,2l0.6,1.1l-0.1,1.1l1.5,2.1l-0.2,1.8l0.7,2.6l1.7,1.3l1.2,0.5l0.2,0.7l1,0.5
    l1,1.4l-0.3,0.6l0.2,0.9l0.8,0.7l2.4,0.3l0.3,2.5l0.7,1.8l0.9,0.9l3.5,1.7v0.7l-2-1.4l-1-0.1l-0.1,0.3l0.5,0.1v0.6l0.8,0.3l0.3,0.6
    L533,388l-0.7-0.3L532,388l0.2,0.5l1.2-0.1l-0.1-0.7l0.9-0.3l0.6,0.3l0.2-1.2l1.8,1.2l2.7,0.7l9.5,0.2l3,2.4l0.6,1.2l2.2,0.6
    l3.3,0.3l0.5,0.4l0.6,1.8l0.8,0.8l0.1,0.7l2.8,2.8l0.6,2.4l2.7,1.3l3.8-0.4l7.3-1.8l0,0l-1.9,0.9l2.3,0.4l-0.2,0.3l-0.9-0.5
    l-0.9,0.9l0.5,0.4l0.1,2.8l0.6,1.5v3l1.1,1l1.4,0.4l1.4,2h1.2l0.4,0.6l2.5,1l0.4,0.5l1.1,3.1l0.2,1.2l-0.4,1l0.4,2.2l1.9,0.8l0,0
    l-3.7,2.9l-2,0.9l-0.9,1.1l0,0l-28.6-1.8l0.3-1.4l-0.6-0.6v-1l-3.4-2.7l-3.4-4.4l0.2-1.1l1.5-0.7l0.2-0.7l-1.4-0.8l-0.4-0.1
    l-1.2,1.1l-3.7,0.9l-3,2.1l-2.9,0.2l-1.3,0.7l-2-0.6l-2.2-4.4l0.2-1.2l-0.3-0.7l0.7-0.7l1-2.6l0.8-1.1l0.2-1.2l-1-3.8l-0.5-0.4
    l-2-0.5l-1.2,0.2l-1.4-0.5l-2.5,0.8l-0.7-0.4l0.5-0.9l-1.4-0.1l-1-1.9l-1.4-0.8l-1.3,0.4l-2-1.6l-0.6-0.9l-0.6-2.7l0.6-1.3l-1-0.4
    l-1.2-1.1l-0.7,0.6v0.9l0.5,0.7l-0.3,1l-1.2,2.2l0,0l-1.8-2.2l-2.6-0.8l-1.4,0.8l-1,1l-1.4-0.1l-1.9-3.1l0.2-0.8l-3.8-1.1l-0.8-0.7
    l-0.4-1.1v-3l1.9-2.4l0.1-0.5l-0.5-6.1l0.2-0.9l4.8,0.2l0.5-0.1l0.2-0.7l-0.1-1.3l-0.5-0.6l-2.9-1.3l-3.6-0.8l-1.4-1l-0.3-0.4
    l0.6-1.4l-1.4-3l0.2-0.7l0.6-0.2l1-2.6l0.7-0.9l0.3-1l-0.3-1l0.2-0.8l1.7-4.3l2.2-3l-0.1-0.5l-7.1-2.5l-0.8,0.7l-1.2,2l-1.6,1.4
    l-0.6-0.2l-0.9-1.8l-2,0.2l-0.7-0.5l-0.5-2.4l-0.1-4l1.2-0.8l1.6,0.9l1.5-2.5l-0.5-1.1l-2.2-1.2l-0.8-0.8l-0.2-0.9l0.4-0.8l-0.8-0.6
    l-0.9,0.2l-0.2-0.3l1.2-0.8v-1.8l-2,0.3l-1.2-0.4l-0.3,1l-0.9,0.9l-0.1,0.8l-1,0.8l-0.7,2.6l0,0l-1.5-1l-0.8,0.4l-2.1,2.3l-1.6,0.7
    l-1.9,2.2l-2.5,1.1l-1.3,1.5l-0.5,0.2l-0.9-1.1l-1.2-2.6l0.2-2.1l0.6-1.3l0.3-3.7l0.6-0.5l0.3-0.9l2.4-2.2h0.5l1.3,1.4l1.5-0.2
    l0.2-0.6l-0.6-1l0.6-2.2l1.9-2.5l-2.5-3.4l-2-0.6l-0.9,0.9l-1.3-0.1l-1.3-0.7l-1.8-1.7l0.3-2.7l-0.3-0.8l-0.9-0.2l0,0l-0.1-3.4
    l-1.3-0.2l-0.9-3.3l0.2-0.9h1.3v-0.7h1l0.3-0.8l1.7-0.8l-1.2-1.1v-0.5l-0.5,0.1l-0.6-0.7l0.1-1.2l-0.4-0.3l0.6-0.5h-1.1l-0.4-0.4
    l0.3-0.4l2.2,0.3l0.4-0.3l0.2-0.7l-0.3-2.5l1.1-0.7h2.5l-1.2-3.6l-0.6-0.7l-4.4-1.4h-2.4l-0.5-0.3L460.8,291.4L460.8,291.4z"/>
  <path
    id="MX-YUC"
    title="Yucatán"
    class="selectable-item"
    d="M740.5,315.2l0.3,5.3l-0.1,0.8l-0.9,0.9l-0.5,3.2l1.3,3.2l-0.1,1l-1.1,2l-0.5,2.5l-0.9,1.1l-0.3,1.6l-0.9,1.2
    l-1.7,0.8l-3.1,2.7l-3.1,1.8l-1.5-0.1l-1.5,0.4l-1.1-1l-1.2,0.4l-1.5,2.8l0.2,2.2h-0.4l-0.9-1.7h-1l-0.5,0.4l-0.8,2.4l-0.5,0.5
    l-5.5,2l-1.8,1l-1.9,1.6l0.3,0.7l-0.3,0.3l-1.1-0.9l-1.9,1.8l-1.2,0.4h-2.4l-2.4,1l-1.4,1.4l-3.5,0.2l-0.6,0.5l0.2,0.9l-0.3,1.5
    l-0.9,2l0,0l-0.4-0.5l-0.8-3.4l-3.2-3.6l-1.2-2.5l-3.8-2.1l-2-4.5l-1.8-1.2l-0.6-1l0.1-0.9l-1-1.8l-0.4-0.3l-0.8,0.8l-0.4,1
    l-0.5,0.1l-0.9-1l-1.1,0.3l-0.4-0.2l-1-2l-4.1-0.5l0.2-7.3l0,0l0.1-1.4l0.6-0.6l0.7-1.7l-0.2-0.5l-0.3,0.2l-1.1,3.4l-0.6,0.5
    l0.3-1.5l1-3l1-1.4l5.6-3.5l2.5-0.6l2.1-1.3h0.9l0.3-0.5l1-0.3l2.9-0.7l0.1,0.4h0.6l-0.1-0.3l0.7-0.4l4-0.7l16.6-2.2l5-1.9l0.6-1.4
    l5.5-1.2l3.2,0.3l1.3-0.4l2.3-1.5l2.1,0.5l-0.2,0.5l1.7,0.6l3.6,0.2l0.5,0.8l1,0.6l2.2,0.1l1.9,0.5l0.4-0.4l-3.8-0.9L740.5,315.2z"
    />
  <path
    id="MX-ZAC"
    title="Zacatecas"
    class="selectable-item"
    d="M359.8,219.2v-1.6l0.6-0.5l5.4-1.1l9.4,0.6l2.5,1.7l2.5,1l2,1.7l2.2,3.1l1.5-0.4l1.2,0.3l0.6,3.6h2.8l0.9-0.9
    l2.3-0.5l3,0.4l1.2,0.8l1.9,3.8l1.4,1.3l2.1,0.8l1.4-0.4l0.2-0.8l0.8-0.3l2.1,0.5l0,0l-0.5,0.4l0,0l-0.8,0.4l-0.4,1.8l-1.2,1
    l-0.7,1.7l-1,0.5l-1.6-0.1l-0.7,0.5l-0.2,1.5l-0.9,1.8l-1.4,0.9l-1.9,0.5l-0.6,0.6l-0.8,3.4l1,1.2l-1.2,3l-1.1,1.5l-4.7,1.6
    l-3.5,5.1l-3.6,2.1l-2.3,0.8l-0.9,1l-0.5,1.4l-2.9,0.6l-2.3-0.9l-0.7,0.2l-0.9,1.7l0.6,0.8l-0.5,1.7l1,3l-1.3,4l-0.2,1.3l0.2,1.5
    l0.9,1l4.2,2.5l1.1,1.3l2.3,0.3l1.1,0.6l0.9,2l1.5,2h2.1l2.4-0.7l4.5-4.6l1.5-0.7h0.7l2,2.6l-0.2,1.6L393,294l1.4,3.9l-0.4,1.6h-0.4
    l-0.1,0.5l0.3,0.2l-0.4,1l-1.9,4l0,0l-0.8,0.9l-1-0.6l0,0l-0.3-0.4l-2.1-0.8l-2.7-2.4l-2.1-1.1l-3.5-0.9l0,0l-1.1-2l-0.6-2.4
    l-4.4-2.6l-1.3-1.3l-0.8-1.4l-0.7,0.2l-0.4,1.3l-1.2,0.9l-3.5,2l-1.8,0.4l-1.1,0.7l-0.9,3.2l-3.3,4.6l-1.2,2.9l0.1,1.2l2.3,2.3l0,0
    l-0.1,2.2l0.6,1.9l2.8,1.8l-0.5,2.7l-1,1.3l-2.3,1.4l-3.6,2.9l-1.5-0.5l-1.4,0.5l-0.6,0.5l-0.3,2l-1.5,0.5l-0.1,0.4l-1.7-0.4
    l-1.3,0.3l-0.2,0.6l-0.9-0.1l-1,0.5l-2.9-1.6l-2.3,0.2l-0.9-0.5l-0.8-1.7l-0.8-0.8l-2.5-0.6l-0.2-0.5l4-1.8l1.2-1.1l0.1-1l-0.3-0.6
    l-0.5-0.4l-1,0.5l-0.9-0.5l-0.9-2.5l1.8-0.5l1.6-1.9l0.3-2.5l-0.2-1.8l2.9-2.1l1.8-1.7l3.3-1.7l1.3-0.2l0.7-0.7l1.2-2.9l0.7-3.5
    l-0.5-0.4l-2.1-0.1l-0.5-0.4l0.8-1.5l-0.4-0.9l-2.2-0.2l-1.9,0.7l-0.3,1.9l1.2,1l-2.4,1.9l-0.9,1.7l-0.9,0.4l-0.7-0.5l-1.3-0.2
    l-0.7,0.8h-1.9l-0.6-0.7l0.1-0.5l3.8-6.2v-1.2l-0.6-1.9l-1.4-1.3l-1.4-0.5l-3.4,0.7l-0.6,0.6v7l-0.4,1.2l-1.2-0.2l-1.2-1.8v-3.3
    l1.7-4.2l1.5-1.9l1.1-0.8l0.2-0.9l-1.8-1l-2.7,0.4l-2.2,1.5l-0.1,0.8l1.7,3.8l0.2,1.4l-1,1.2l-1.8,1.1l-0.3-0.5l1-3.2l-0.5-0.4
    l-3.1,1.2l-0.4,3l-1.4-0.3l-1.1,1.2l0,0l-0.7-0.4l-0.4-1l-0.2-2.8l0,0l1.2-3l1-1.5l3.2-1.4l0.2-0.6l0.2-5.5l-0.9-3.1l0.1-1.3
    l1.4-2.7l0.6-0.4l1.3-5.8l0.1-1.9l2.3-2.9l2.8-2.4l-0.9-4.3l0.5-1.2l-0.4-1.9l0.3-1.7l-0.4-1.6l-0.8-0.5l0.2-1.3l2.4-0.7l2.3-2.1
    l2.1-2.8l2.4-1.8l0.5-1.3l1.7-1.4l3.9,0.3l2.2,0.7l2.2-0.8l1.1,0.1l1,0.7l2.7,0.9l0.8-0.9l1.7,0.2l6.1-0.6l0.1-0.7l-0.5-0.4v-0.4
    l1-0.5l-1-4l-1.2-0.4l0.8-4.9l-0.8-0.9l-1.5-0.7l-0.4-1.1l-0.8-0.3v-1.6L359.8,219.2z"/>
  </svg>
